# MagicaVoxel @ Ephtracy

# group
o 

# material
mtllib bread_slice_top.mtl
usemtl palette

# normals
vn -1 0 0
vn 1 0 0
vn 0 0 1
vn 0 0 -1
vn 0 -1 0
vn 0 1 0

# texcoords
vt 0.00585938 0.5
vt 0.205078 0.5
vt 0.208984 0.5
vt 0.373047 0.5

# verts
v -0.4 0.2 0.1
v -0.4 0.2 -0.1
v -0.4 0.4 0.1
v -0.4 0.4 -0.1
v -0.3 0.2 0.2
v -0.3 0.2 0.1
v -0.3 0.2 -0.1
v -0.3 0.2 -0.2
v -0.3 0.3 -0.1
v -0.3 0.3 -0.2
v -0.3 0.4 0.2
v -0.3 0.4 0.1
v -0.3 0.4 -0.1
v -0.3 0.4 -0.2
v -0.3 0.5 0.1
v -0.3 0.5 -0.1
v -0.2 0.2 0.3
v -0.2 0.2 0.2
v -0.2 0.2 -0.2
v -0.2 0.2 -0.3
v -0.2 0.3 0.3
v -0.2 0.3 0.2
v -0.2 0.3 -0.2
v -0.2 0.4 0.3
v -0.2 0.4 0.2
v -0.2 0.4 0.1
v -0.2 0.4 -0.1
v -0.2 0.4 -0.2
v -0.2 0.4 -0.3
v -0.2 0.5 0.2
v -0.2 0.5 0.1
v -0.2 0.5 -7.45058e-009
v -0.2 0.5 -0.1
v -0.2 0.5 -0.2
v -0.2 0.6 0.1
v -0.2 0.6 -7.45058e-009
v -0.2 0.6 -0.1
v -0.1 0.2 0.4
v -0.1 0.2 0.3
v -0.1 0.2 -0.3
v -0.1 0.2 -0.4
v -0.1 0.3 0.3
v -0.1 0.4 0.4
v -0.1 0.4 0.3
v -0.1 0.4 0.2
v -0.1 0.4 -0.2
v -0.1 0.4 -0.3
v -0.1 0.4 -0.4
v -0.1 0.5 0.3
v -0.1 0.5 0.2
v -0.1 0.5 0.1
v -0.1 0.5 -0.1
v -0.1 0.5 -0.2
v -0.1 0.5 -0.3
v -0.1 0.6 0.2
v -0.1 0.6 0.1
v -0.1 0.6 -0.1
v -0.1 0.6 -0.2
v 0.1 0.2 0.4
v 0.1 0.2 0.3
v 0.1 0.2 -0.3
v 0.1 0.2 -0.4
v 0.1 0.3 -0.3
v 0.1 0.4 0.4
v 0.1 0.4 0.3
v 0.1 0.4 0.2
v 0.1 0.4 -0.2
v 0.1 0.4 -0.3
v 0.1 0.4 -0.4
v 0.1 0.5 0.3
v 0.1 0.5 0.2
v 0.1 0.5 0.1
v 0.1 0.5 -0.1
v 0.1 0.5 -0.2
v 0.1 0.5 -0.3
v 0.1 0.6 0.2
v 0.1 0.6 0.1
v 0.1 0.6 -0.1
v 0.1 0.6 -0.2
v 0.2 0.2 0.3
v 0.2 0.2 0.2
v 0.2 0.2 -0.2
v 0.2 0.2 -0.3
v 0.2 0.3 -0.2
v 0.2 0.3 -0.3
v 0.2 0.4 0.3
v 0.2 0.4 0.2
v 0.2 0.4 0.1
v 0.2 0.4 -0.1
v 0.2 0.4 -0.2
v 0.2 0.4 -0.3
v 0.2 0.5 0.2
v 0.2 0.5 0.1
v 0.2 0.5 -7.45058e-009
v 0.2 0.5 -0.1
v 0.2 0.5 -0.2
v 0.2 0.6 0.1
v 0.2 0.6 -7.45058e-009
v 0.2 0.6 -0.1
v 0.3 0.2 0.2
v 0.3 0.2 0.1
v 0.3 0.2 -0.1
v 0.3 0.2 -0.2
v 0.3 0.3 -0.1
v 0.3 0.4 0.2
v 0.3 0.4 0.1
v 0.3 0.4 -7.45058e-009
v 0.3 0.4 -0.1
v 0.3 0.4 -0.2
v 0.3 0.5 0.1
v 0.3 0.5 -0.1
v 0.4 0.2 0.1
v 0.4 0.2 -0.1
v 0.4 0.3 -7.45058e-009
v 0.4 0.3 -0.1
v 0.4 0.4 0.1
v 0.4 0.4 -7.45058e-009
v 0.4 0.4 -0.1
v -0.1 0.2 0.4
v -0.1 0.4 0.4
v 0.1 0.2 0.4
v 0.1 0.4 0.4
v -0.2 0.2 0.3
v -0.2 0.3 0.3
v -0.2 0.4 0.3
v -0.1 0.2 0.3
v -0.1 0.3 0.3
v -0.1 0.4 0.3
v -0.1 0.5 0.3
v 7.45058e-009 0.4 0.3
v 7.45058e-009 0.5 0.3
v 0.1 0.2 0.3
v 0.1 0.4 0.3
v 0.1 0.5 0.3
v 0.2 0.2 0.3
v 0.2 0.4 0.3
v -0.3 0.2 0.2
v -0.3 0.4 0.2
v -0.2 0.2 0.2
v -0.2 0.3 0.2
v -0.2 0.4 0.2
v -0.2 0.5 0.2
v -0.1 0.4 0.2
v -0.1 0.5 0.2
v -0.1 0.6 0.2
v 7.45058e-009 0.5 0.2
v 0.1 0.4 0.2
v 0.1 0.5 0.2
v 0.1 0.6 0.2
v 0.2 0.2 0.2
v 0.2 0.4 0.2
v 0.2 0.5 0.2
v 0.3 0.2 0.2
v 0.3 0.4 0.2
v -0.4 0.2 0.1
v -0.4 0.4 0.1
v -0.3 0.2 0.1
v -0.3 0.4 0.1
v -0.3 0.5 0.1
v -0.2 0.4 0.1
v -0.2 0.5 0.1
v -0.2 0.6 0.1
v -0.1 0.5 0.1
v -0.1 0.6 0.1
v 0.1 0.5 0.1
v 0.1 0.6 0.1
v 0.2 0.4 0.1
v 0.2 0.5 0.1
v 0.2 0.6 0.1
v 0.3 0.2 0.1
v 0.3 0.4 0.1
v 0.3 0.5 0.1
v 0.4 0.2 0.1
v 0.4 0.4 0.1
v -0.4 0.2 -0.1
v -0.4 0.4 -0.1
v -0.3 0.2 -0.1
v -0.3 0.3 -0.1
v -0.3 0.4 -0.1
v -0.3 0.5 -0.1
v -0.2 0.4 -0.1
v -0.2 0.5 -0.1
v -0.2 0.6 -0.1
v -0.1 0.5 -0.1
v -0.1 0.6 -0.1
v 0.1 0.5 -0.1
v 0.1 0.6 -0.1
v 0.2 0.4 -0.1
v 0.2 0.5 -0.1
v 0.2 0.6 -0.1
v 0.3 0.2 -0.1
v 0.3 0.3 -0.1
v 0.3 0.4 -0.1
v 0.3 0.5 -0.1
v 0.4 0.2 -0.1
v 0.4 0.3 -0.1
v 0.4 0.4 -0.1
v -0.3 0.2 -0.2
v -0.3 0.3 -0.2
v -0.3 0.4 -0.2
v -0.2 0.2 -0.2
v -0.2 0.3 -0.2
v -0.2 0.4 -0.2
v -0.2 0.5 -0.2
v -0.1 0.4 -0.2
v -0.1 0.5 -0.2
v -0.1 0.6 -0.2
v 7.45058e-009 0.5 -0.2
v 7.45058e-009 0.6 -0.2
v 0.1 0.4 -0.2
v 0.1 0.5 -0.2
v 0.1 0.6 -0.2
v 0.2 0.2 -0.2
v 0.2 0.3 -0.2
v 0.2 0.4 -0.2
v 0.2 0.5 -0.2
v 0.3 0.2 -0.2
v 0.3 0.4 -0.2
v -0.2 0.2 -0.3
v -0.2 0.4 -0.3
v -0.1 0.2 -0.3
v -0.1 0.4 -0.3
v -0.1 0.5 -0.3
v 7.45058e-009 0.4 -0.3
v 7.45058e-009 0.5 -0.3
v 0.1 0.2 -0.3
v 0.1 0.3 -0.3
v 0.1 0.4 -0.3
v 0.1 0.5 -0.3
v 0.2 0.2 -0.3
v 0.2 0.3 -0.3
v 0.2 0.4 -0.3
v -0.1 0.2 -0.4
v -0.1 0.4 -0.4
v 0.1 0.2 -0.4
v 0.1 0.4 -0.4
v -0.1 0.2 0.4
v 0.1 0.2 0.4
v -0.2 0.2 0.3
v -0.1 0.2 0.3
v 0.1 0.2 0.3
v 0.2 0.2 0.3
v -0.3 0.2 0.2
v -0.2 0.2 0.2
v -0.1 0.2 0.2
v 0.1 0.2 0.2
v 0.2 0.2 0.2
v 0.3 0.2 0.2
v -0.4 0.2 0.1
v -0.3 0.2 0.1
v -0.2 0.2 0.1
v 0.2 0.2 0.1
v 0.3 0.2 0.1
v 0.4 0.2 0.1
v -0.4 0.2 -0.1
v -0.3 0.2 -0.1
v -0.2 0.2 -0.1
v 0.2 0.2 -0.1
v 0.3 0.2 -0.1
v 0.4 0.2 -0.1
v -0.3 0.2 -0.2
v -0.2 0.2 -0.2
v -0.1 0.2 -0.2
v 0.1 0.2 -0.2
v 0.2 0.2 -0.2
v 0.3 0.2 -0.2
v -0.2 0.2 -0.3
v -0.1 0.2 -0.3
v 0.1 0.2 -0.3
v 0.2 0.2 -0.3
v -0.1 0.2 -0.4
v 0.1 0.2 -0.4
v -0.1 0.4 0.4
v 0.1 0.4 0.4
v -0.2 0.4 0.3
v -0.1 0.4 0.3
v 7.45058e-009 0.4 0.3
v 0.1 0.4 0.3
v 0.2 0.4 0.3
v -0.3 0.4 0.2
v -0.2 0.4 0.2
v -0.1 0.4 0.2
v 0.1 0.4 0.2
v 0.2 0.4 0.2
v 0.3 0.4 0.2
v -0.4 0.4 0.1
v -0.3 0.4 0.1
v -0.2 0.4 0.1
v 0.2 0.4 0.1
v 0.3 0.4 0.1
v 0.4 0.4 0.1
v 0.3 0.4 -7.45058e-009
v 0.4 0.4 -7.45058e-009
v -0.4 0.4 -0.1
v -0.3 0.4 -0.1
v -0.2 0.4 -0.1
v 0.2 0.4 -0.1
v 0.3 0.4 -0.1
v 0.4 0.4 -0.1
v -0.3 0.4 -0.2
v -0.2 0.4 -0.2
v -0.1 0.4 -0.2
v 0.1 0.4 -0.2
v 0.2 0.4 -0.2
v 0.3 0.4 -0.2
v -0.2 0.4 -0.3
v -0.1 0.4 -0.3
v 7.45058e-009 0.4 -0.3
v 0.1 0.4 -0.3
v 0.2 0.4 -0.3
v -0.1 0.4 -0.4
v 0.1 0.4 -0.4
v -0.1 0.5 0.3
v 7.45058e-009 0.5 0.3
v 0.1 0.5 0.3
v -0.2 0.5 0.2
v -0.1 0.5 0.2
v 7.45058e-009 0.5 0.2
v 0.1 0.5 0.2
v 0.2 0.5 0.2
v -0.3 0.5 0.1
v -0.2 0.5 0.1
v -0.1 0.5 0.1
v 0.1 0.5 0.1
v 0.2 0.5 0.1
v 0.3 0.5 0.1
v -0.2 0.5 -7.45058e-009
v 0.2 0.5 -7.45058e-009
v -0.3 0.5 -0.1
v -0.2 0.5 -0.1
v -0.1 0.5 -0.1
v 0.1 0.5 -0.1
v 0.2 0.5 -0.1
v 0.3 0.5 -0.1
v -0.2 0.5 -0.2
v -0.1 0.5 -0.2
v 7.45058e-009 0.5 -0.2
v 0.1 0.5 -0.2
v 0.2 0.5 -0.2
v -0.1 0.5 -0.3
v 7.45058e-009 0.5 -0.3
v 0.1 0.5 -0.3
v -0.1 0.6 0.2
v 0.1 0.6 0.2
v -0.2 0.6 0.1
v -0.1 0.6 0.1
v 0.1 0.6 0.1
v 0.2 0.6 0.1
v -0.2 0.6 -7.45058e-009
v -0.1 0.6 -7.45058e-009
v 0.1 0.6 -7.45058e-009
v 0.2 0.6 -7.45058e-009
v -0.2 0.6 -0.1
v -0.1 0.6 -0.1
v 7.45058e-009 0.6 -0.1
v 0.1 0.6 -0.1
v 0.2 0.6 -0.1
v -0.1 0.6 -0.2
v 7.45058e-009 0.6 -0.2
v 0.1 0.6 -0.2

# faces
f 3/4/1 2/4/1 1/4/1
f 4/4/1 2/4/1 3/4/1
f 9/4/1 8/4/1 7/4/1
f 10/4/1 8/4/1 9/4/1
f 11/4/1 6/4/1 5/4/1
f 12/4/1 6/4/1 11/4/1
f 13/3/1 10/3/1 9/3/1
f 14/3/1 10/3/1 13/3/1
f 15/4/1 13/4/1 12/4/1
f 16/4/1 13/4/1 15/4/1
f 21/4/1 18/4/1 17/4/1
f 22/4/1 18/4/1 21/4/1
f 23/4/1 20/4/1 19/4/1
f 24/3/1 22/3/1 21/3/1
f 25/3/1 22/3/1 24/3/1
f 28/4/1 20/4/1 23/4/1
f 29/4/1 20/4/1 28/4/1
f 30/4/1 26/4/1 25/4/1
f 31/4/1 26/4/1 30/4/1
f 33/4/1 28/4/1 27/4/1
f 34/4/1 28/4/1 33/4/1
f 35/3/1 32/3/1 31/3/1
f 36/4/1 33/4/1 32/4/1
f 36/3/1 32/3/1 35/3/1
f 37/4/1 33/4/1 36/4/1
f 42/4/1 39/4/1 38/4/1
f 43/4/1 42/4/1 38/4/1
f 44/4/1 42/4/1 43/4/1
f 47/4/1 41/4/1 40/4/1
f 48/4/1 41/4/1 47/4/1
f 49/4/1 45/4/1 44/4/1
f 50/4/1 45/4/1 49/4/1
f 53/3/1 47/3/1 46/3/1
f 54/3/1 47/3/1 53/3/1
f 55/4/1 51/4/1 50/4/1
f 56/4/1 51/4/1 55/4/1
f 57/4/1 53/4/1 52/4/1
f 58/4/1 53/4/1 57/4/1
f 61/4/2 62/4/2 63/4/2
f 59/4/2 60/4/2 64/4/2
f 64/4/2 60/4/2 65/4/2
f 63/4/2 62/4/2 68/4/2
f 68/4/2 62/4/2 69/4/2
f 65/3/2 66/3/2 70/3/2
f 70/3/2 66/3/2 71/3/2
f 67/4/2 68/4/2 74/4/2
f 74/4/2 68/4/2 75/4/2
f 71/4/2 72/4/2 76/4/2
f 76/4/2 72/4/2 77/4/2
f 73/3/2 74/3/2 78/3/2
f 78/3/2 74/3/2 79/3/2
f 82/4/2 83/4/2 84/4/2
f 84/4/2 83/4/2 85/4/2
f 80/4/2 81/4/2 86/4/2
f 86/4/2 81/4/2 87/4/2
f 84/3/2 85/3/2 90/3/2
f 90/3/2 85/3/2 91/3/2
f 87/4/2 88/4/2 92/4/2
f 92/4/2 88/4/2 93/4/2
f 89/4/2 90/4/2 95/4/2
f 95/4/2 90/4/2 96/4/2
f 93/3/2 94/3/2 97/3/2
f 94/4/2 95/4/2 98/4/2
f 97/3/2 94/3/2 98/3/2
f 98/4/2 95/4/2 99/4/2
f 102/4/2 103/4/2 104/4/2
f 100/4/2 101/4/2 105/4/2
f 105/4/2 101/4/2 106/4/2
f 104/4/2 103/4/2 108/4/2
f 108/4/2 103/4/2 109/4/2
f 106/4/2 107/4/2 110/4/2
f 107/4/2 108/4/2 110/4/2
f 110/4/2 108/4/2 111/4/2
f 112/4/2 113/4/2 114/4/2
f 114/4/2 113/4/2 115/4/2
f 112/4/2 114/4/2 116/4/2
f 114/3/2 115/3/2 117/3/2
f 116/4/2 114/4/2 117/4/2
f 117/3/2 115/3/2 118/3/2
f 121/4/3 120/4/3 119/4/3
f 122/4/3 120/4/3 121/4/3
f 126/4/3 124/4/3 123/4/3
f 127/3/3 125/3/3 124/3/3
f 127/4/3 124/4/3 126/4/3
f 128/3/3 125/3/3 127/3/3
f 130/4/3 129/4/3 128/4/3
f 131/4/3 129/4/3 130/4/3
f 133/3/3 131/3/3 130/3/3
f 134/3/3 131/3/3 133/3/3
f 135/4/3 133/4/3 132/4/3
f 136/4/3 133/4/3 135/4/3
f 139/4/3 138/4/3 137/4/3
f 140/4/3 138/4/3 139/4/3
f 141/4/3 138/4/3 140/4/3
f 143/4/3 142/4/3 141/4/3
f 144/4/3 142/4/3 143/4/3
f 146/4/3 145/4/3 144/4/3
f 148/4/3 145/4/3 146/4/3
f 149/4/3 145/4/3 148/4/3
f 151/4/3 148/4/3 147/4/3
f 152/4/3 148/4/3 151/4/3
f 153/4/3 151/4/3 150/4/3
f 154/4/3 151/4/3 153/4/3
f 157/4/3 156/4/3 155/4/3
f 158/4/3 156/4/3 157/4/3
f 160/4/3 159/4/3 158/4/3
f 161/4/3 159/4/3 160/4/3
f 163/3/3 162/3/3 161/3/3
f 164/3/3 162/3/3 163/3/3
f 168/3/3 166/3/3 165/3/3
f 169/3/3 166/3/3 168/3/3
f 171/4/3 168/4/3 167/4/3
f 172/4/3 168/4/3 171/4/3
f 173/4/3 171/4/3 170/4/3
f 174/4/3 171/4/3 173/4/3
f 175/4/4 176/4/4 177/4/4
f 177/4/4 176/4/4 178/4/4
f 178/4/4 176/4/4 179/4/4
f 179/4/4 180/4/4 181/4/4
f 181/4/4 180/4/4 182/4/4
f 182/4/4 183/4/4 184/4/4
f 184/4/4 183/4/4 185/4/4
f 186/4/4 187/4/4 189/4/4
f 189/4/4 187/4/4 190/4/4
f 188/4/4 189/4/4 193/4/4
f 193/4/4 189/4/4 194/4/4
f 191/4/4 192/4/4 195/4/4
f 192/3/4 193/3/4 196/3/4
f 195/4/4 192/4/4 196/4/4
f 196/3/4 193/3/4 197/3/4
f 198/4/4 199/4/4 201/4/4
f 199/3/4 200/3/4 202/3/4
f 201/4/4 199/4/4 202/4/4
f 202/3/4 200/3/4 203/3/4
f 203/4/4 204/4/4 205/4/4
f 205/4/4 204/4/4 206/4/4
f 206/4/4 207/4/4 208/4/4
f 208/4/4 207/4/4 209/4/4
f 208/3/4 209/3/4 211/3/4
f 211/3/4 209/3/4 212/3/4
f 210/4/4 211/4/4 215/4/4
f 215/4/4 211/4/4 216/4/4
f 213/4/4 214/4/4 217/4/4
f 214/4/4 215/4/4 217/4/4
f 217/4/4 215/4/4 218/4/4
f 219/4/4 220/4/4 221/4/4
f 221/4/4 220/4/4 222/4/4
f 222/3/4 223/3/4 224/3/4
f 224/3/4 223/3/4 225/3/4
f 224/4/4 225/4/4 228/4/4
f 228/4/4 225/4/4 229/4/4
f 226/4/4 227/4/4 230/4/4
f 227/3/4 228/3/4 231/3/4
f 230/4/4 227/4/4 231/4/4
f 231/3/4 228/3/4 232/3/4
f 233/4/4 234/4/4 235/4/4
f 235/4/4 234/4/4 236/4/4
f 240/4/5 238/4/5 237/4/5
f 241/4/5 238/4/5 240/4/5
f 244/4/5 240/4/5 239/4/5
f 245/1/5 241/1/5 240/1/5
f 245/4/5 240/4/5 244/4/5
f 246/4/5 242/4/5 241/4/5
f 246/1/5 241/1/5 245/1/5
f 247/4/5 242/4/5 246/4/5
f 250/4/5 244/4/5 243/4/5
f 251/1/5 245/1/5 244/1/5
f 251/1/5 246/1/5 245/1/5
f 251/4/5 244/4/5 250/4/5
f 251/1/5 247/1/5 246/1/5
f 252/4/5 248/4/5 247/4/5
f 252/1/5 247/1/5 251/1/5
f 253/4/5 248/4/5 252/4/5
f 255/4/5 250/4/5 249/4/5
f 256/1/5 251/1/5 250/1/5
f 256/4/5 250/4/5 255/4/5
f 256/1/5 252/1/5 251/1/5
f 256/1/5 253/1/5 252/1/5
f 257/1/5 253/1/5 256/1/5
f 258/1/5 253/1/5 257/1/5
f 259/4/5 254/4/5 253/4/5
f 259/1/5 253/1/5 258/1/5
f 260/4/5 254/4/5 259/4/5
f 261/4/5 257/4/5 256/4/5
f 262/1/5 258/1/5 257/1/5
f 262/4/5 257/4/5 261/4/5
f 263/1/5 258/1/5 262/1/5
f 264/1/5 258/1/5 263/1/5
f 265/4/5 259/4/5 258/4/5
f 265/1/5 258/1/5 264/1/5
f 266/4/5 259/4/5 265/4/5
f 267/4/5 263/4/5 262/4/5
f 268/1/5 264/1/5 263/1/5
f 268/4/5 263/4/5 267/4/5
f 269/4/5 265/4/5 264/4/5
f 269/1/5 264/1/5 268/1/5
f 270/4/5 265/4/5 269/4/5
f 271/4/5 269/4/5 268/4/5
f 272/4/5 269/4/5 271/4/5
f 273/4/6 274/4/6 276/4/6
f 276/4/6 274/4/6 277/4/6
f 277/4/6 274/4/6 278/4/6
f 275/3/6 276/3/6 281/3/6
f 281/3/6 276/3/6 282/3/6
f 278/4/6 279/4/6 283/4/6
f 283/4/6 279/4/6 284/4/6
f 280/4/6 281/4/6 287/4/6
f 287/4/6 281/4/6 288/4/6
f 284/4/6 285/4/6 289/4/6
f 289/4/6 285/4/6 290/4/6
f 290/4/6 291/4/6 292/4/6
f 292/4/6 291/4/6 293/4/6
f 286/4/6 287/4/6 294/4/6
f 294/4/6 287/4/6 295/4/6
f 292/3/6 293/3/6 298/3/6
f 298/3/6 293/3/6 299/3/6
f 295/3/6 296/3/6 300/3/6
f 300/3/6 296/3/6 301/3/6
f 297/4/6 298/4/6 304/4/6
f 304/4/6 298/4/6 305/4/6
f 301/4/6 302/4/6 306/4/6
f 306/4/6 302/4/6 307/4/6
f 303/3/6 304/3/6 309/3/6
f 309/3/6 304/3/6 310/3/6
f 307/4/6 308/4/6 311/4/6
f 308/4/6 309/4/6 311/4/6
f 311/4/6 309/4/6 312/4/6
f 313/4/6 314/4/6 317/4/6
f 314/3/6 315/3/6 318/3/6
f 317/4/6 314/4/6 318/4/6
f 318/3/6 315/3/6 319/3/6
f 316/4/6 317/4/6 322/4/6
f 322/4/6 317/4/6 323/4/6
f 319/4/6 320/4/6 324/4/6
f 324/4/6 320/4/6 325/4/6
f 321/4/6 322/4/6 327/4/6
f 325/4/6 326/4/6 328/4/6
f 321/4/6 327/4/6 329/4/6
f 329/4/6 327/4/6 330/4/6
f 328/4/6 326/4/6 333/4/6
f 333/4/6 326/4/6 334/4/6
f 330/4/6 331/4/6 335/4/6
f 335/4/6 331/4/6 336/4/6
f 332/4/6 333/4/6 338/4/6
f 338/4/6 333/4/6 339/4/6
f 336/3/6 337/3/6 340/3/6
f 337/4/6 338/4/6 341/4/6
f 340/3/6 337/3/6 341/3/6
f 341/4/6 338/4/6 342/4/6
f 343/4/6 344/4/6 346/4/6
f 346/4/6 344/4/6 347/4/6
f 345/3/6 346/3/6 349/3/6
f 346/4/6 347/4/6 350/4/6
f 349/3/6 346/3/6 350/3/6
f 347/3/6 348/3/6 351/3/6
f 350/4/6 347/4/6 351/4/6
f 351/3/6 348/3/6 352/3/6
f 349/4/6 350/4/6 353/4/6
f 350/4/6 351/4/6 353/4/6
f 351/4/6 352/4/6 353/4/6
f 353/4/6 352/4/6 354/4/6
f 354/4/6 352/4/6 355/4/6
f 355/4/6 352/4/6 356/4/6
f 356/4/6 352/4/6 357/4/6
f 354/4/6 355/4/6 358/4/6
f 355/3/6 356/3/6 359/3/6
f 358/4/6 355/4/6 359/4/6
f 359/3/6 356/3/6 360/3/6
