# MagicaVoxel @ Ephtracy

# group
o 

# material
mtllib bread.mtl
usemtl palette

# normals
vn -1 0 0
vn 1 0 0
vn 0 0 1
vn 0 0 -1
vn 0 -1 0
vn 0 1 0

# texcoords
vt 0.201172 0.5
vt 0.373047 0.5

# verts
v -1 0.2 -2.98023e-008
v -1 0.2 -0.3
v -1 0.3 -2.98023e-008
v -1 0.3 -0.3
v -0.9 0.1 -0.1
v -0.9 0.1 -0.3
v -0.9 0.2 0.1
v -0.9 0.2 -2.98023e-008
v -0.9 0.2 -0.1
v -0.9 0.2 -0.3
v -0.9 0.2 -0.4
v -0.9 0.3 0.1
v -0.9 0.3 -2.98023e-008
v -0.9 0.3 -0.3
v -0.9 0.3 -0.4
v -0.9 0.4 -2.98023e-008
v -0.9 0.4 -0.3
v -0.8 0.1 0.1
v -0.8 0.1 -0.1
v -0.8 0.1 -0.3
v -0.8 0.1 -0.4
v -0.8 0.2 0.2
v -0.8 0.2 0.1
v -0.8 0.2 -0.1
v -0.8 0.2 -0.3
v -0.8 0.2 -0.4
v -0.8 0.2 -0.5
v -0.8 0.3 0.2
v -0.8 0.3 0.1
v -0.8 0.3 -2.98023e-008
v -0.8 0.3 -0.3
v -0.8 0.3 -0.4
v -0.8 0.3 -0.5
v -0.8 0.4 0.1
v -0.8 0.4 -2.98023e-008
v -0.8 0.4 -0.3
v -0.8 0.4 -0.4
v -0.8 0.5 -2.98023e-008
v -0.8 0.5 -0.3
v -0.7 0.1 0.2
v -0.7 0.1 0.1
v -0.7 0.2 0.3
v -0.7 0.2 0.2
v -0.7 0.2 0.1
v -0.7 0.3 0.3
v -0.7 0.3 0.2
v -0.7 0.3 0.1
v -0.7 0.4 0.2
v -0.7 0.4 0.1
v -0.7 0.4 -2.98023e-008
v -0.7 0.5 0.1
v -0.7 0.5 -2.98023e-008
v 0.4 0.1 -0.3
v 0.4 0.1 -0.4
v 0.4 0.2 -0.3
v 0.4 0.2 -0.4
v 0.4 0.2 -0.5
v 0.4 0.3 0.2
v 0.4 0.3 0.1
v 0.4 0.3 -0.3
v 0.4 0.3 -0.4
v 0.4 0.3 -0.5
v 0.4 0.4 0.2
v 0.4 0.4 0.1
v 0.4 0.4 -0.2
v 0.4 0.4 -0.3
v 0.4 0.4 -0.4
v 0.4 0.5 -0.2
v 0.4 0.5 -0.3
v 0.5 0.1 -0.2
v 0.5 0.1 -0.3
v 0.5 0.2 0.3
v 0.5 0.2 0.2
v 0.5 0.2 0.1
v 0.5 0.2 -0.2
v 0.5 0.2 -0.3
v 0.5 0.2 -0.4
v 0.5 0.3 0.3
v 0.5 0.3 0.1
v 0.5 0.3 -0.2
v 0.5 0.3 -0.3
v 0.5 0.3 -0.4
v 0.5 0.4 0.1
v 0.5 0.4 -0.2
v 0.5 0.4 -0.3
v 0.5 0.5 0.1
v 0.5 0.5 -0.2
v 0.6 0.1 0.2
v 0.6 0.1 -0.2
v 0.6 0.2 0.2
v 0.6 0.2 0.1
v 0.6 0.2 -0.2
v 0.6 0.2 -0.3
v 0.6 0.3 0.1
v 0.6 0.3 -0.2
v 0.6 0.3 -0.3
v 0.6 0.4 0.1
v 0.6 0.4 -0.2
v 0.7 0.2 0.1
v 0.7 0.2 -0.2
v 0.7 0.3 0.1
v 0.7 0.3 -0.2
v -0.7 0.2 0.3
v -0.7 0.3 0.3
v 0.5 0.2 0.3
v 0.5 0.3 0.3
v -0.8 0.2 0.2
v -0.8 0.3 0.2
v -0.7 0.1 0.2
v -0.7 0.2 0.2
v -0.7 0.3 0.2
v -0.7 0.4 0.2
v -0.6 0.3 0.2
v -0.6 0.4 0.2
v -0.5 0.3 0.2
v -0.5 0.4 0.2
v -0.3 0.3 0.2
v -0.3 0.4 0.2
v -0.2 0.3 0.2
v -0.2 0.4 0.2
v -7.45058e-009 0.3 0.2
v -7.45058e-009 0.4 0.2
v 0.1 0.3 0.2
v 0.1 0.4 0.2
v 0.4 0.3 0.2
v 0.4 0.4 0.2
v 0.5 0.2 0.2
v 0.6 0.1 0.2
v 0.6 0.2 0.2
v -0.9 0.2 0.1
v -0.9 0.3 0.1
v -0.8 0.1 0.1
v -0.8 0.2 0.1
v -0.8 0.3 0.1
v -0.8 0.4 0.1
v -0.7 0.1 0.1
v -0.7 0.2 0.1
v -0.7 0.3 0.1
v -0.7 0.4 0.1
v -0.7 0.5 0.1
v -0.6 0.4 0.1
v -0.6 0.5 0.1
v -0.5 0.4 0.1
v -0.5 0.5 0.1
v -0.3 0.4 0.1
v -0.3 0.5 0.1
v -0.2 0.4 0.1
v -0.2 0.5 0.1
v -7.45058e-009 0.4 0.1
v -7.45058e-009 0.5 0.1
v 0.1 0.4 0.1
v 0.1 0.5 0.1
v 0.4 0.3 0.1
v 0.4 0.4 0.1
v 0.5 0.2 0.1
v 0.5 0.3 0.1
v 0.5 0.4 0.1
v 0.5 0.5 0.1
v 0.6 0.2 0.1
v 0.6 0.3 0.1
v 0.6 0.4 0.1
v 0.7 0.2 0.1
v 0.7 0.3 0.1
v -1 0.2 -2.98023e-008
v -1 0.3 -2.98023e-008
v -0.9 0.2 -2.98023e-008
v -0.9 0.3 -2.98023e-008
v -0.9 0.4 -2.98023e-008
v -0.8 0.3 -2.98023e-008
v -0.8 0.4 -2.98023e-008
v -0.8 0.5 -2.98023e-008
v -0.7 0.4 -2.98023e-008
v -0.7 0.5 -2.98023e-008
v -0.9 0.1 -0.1
v -0.9 0.2 -0.1
v -0.8 0.1 -0.1
v -0.8 0.2 -0.1
v 0.4 0.4 -0.2
v 0.4 0.5 -0.2
v 0.5 0.1 -0.2
v 0.5 0.2 -0.2
v 0.5 0.3 -0.2
v 0.5 0.4 -0.2
v 0.5 0.5 -0.2
v 0.6 0.1 -0.2
v 0.6 0.2 -0.2
v 0.6 0.3 -0.2
v 0.6 0.4 -0.2
v 0.7 0.2 -0.2
v 0.7 0.3 -0.2
v -1 0.2 -0.3
v -1 0.3 -0.3
v -0.9 0.1 -0.3
v -0.9 0.2 -0.3
v -0.9 0.3 -0.3
v -0.9 0.4 -0.3
v -0.8 0.1 -0.3
v -0.8 0.2 -0.3
v -0.8 0.3 -0.3
v -0.8 0.4 -0.3
v -0.8 0.5 -0.3
v -0.6 0.4 -0.3
v -0.6 0.5 -0.3
v -0.5 0.4 -0.3
v -0.5 0.5 -0.3
v -0.3 0.4 -0.3
v -0.3 0.5 -0.3
v -0.2 0.4 -0.3
v -0.2 0.5 -0.3
v -7.45058e-009 0.4 -0.3
v -7.45058e-009 0.5 -0.3
v 0.1 0.4 -0.3
v 0.1 0.5 -0.3
v 0.4 0.1 -0.3
v 0.4 0.2 -0.3
v 0.4 0.3 -0.3
v 0.4 0.4 -0.3
v 0.4 0.5 -0.3
v 0.5 0.1 -0.3
v 0.5 0.2 -0.3
v 0.5 0.3 -0.3
v 0.5 0.4 -0.3
v 0.6 0.2 -0.3
v 0.6 0.3 -0.3
v -0.9 0.2 -0.4
v -0.9 0.3 -0.4
v -0.8 0.1 -0.4
v -0.8 0.2 -0.4
v -0.8 0.3 -0.4
v -0.8 0.4 -0.4
v -0.6 0.3 -0.4
v -0.6 0.4 -0.4
v -0.5 0.3 -0.4
v -0.5 0.4 -0.4
v -0.3 0.3 -0.4
v -0.3 0.4 -0.4
v -0.2 0.3 -0.4
v -0.2 0.4 -0.4
v -7.45058e-009 0.3 -0.4
v -7.45058e-009 0.4 -0.4
v 0.1 0.3 -0.4
v 0.1 0.4 -0.4
v 0.4 0.1 -0.4
v 0.4 0.2 -0.4
v 0.4 0.3 -0.4
v 0.4 0.4 -0.4
v 0.5 0.2 -0.4
v 0.5 0.3 -0.4
v -0.8 0.2 -0.5
v -0.8 0.3 -0.5
v 0.4 0.2 -0.5
v 0.4 0.3 -0.5
v -0.7 0.1 0.2
v 0.6 0.1 0.2
v -0.8 0.1 0.1
v -0.7 0.1 0.1
v -0.9 0.1 -0.1
v -0.8 0.1 -0.1
v 0.5 0.1 -0.2
v 0.6 0.1 -0.2
v -0.9 0.1 -0.3
v -0.8 0.1 -0.3
v 0.4 0.1 -0.3
v 0.5 0.1 -0.3
v -0.8 0.1 -0.4
v 0.4 0.1 -0.4
v -0.7 0.2 0.3
v 0.5 0.2 0.3
v -0.8 0.2 0.2
v -0.7 0.2 0.2
v 0.5 0.2 0.2
v -0.9 0.2 0.1
v -0.8 0.2 0.1
v -0.7 0.2 0.1
v 0.6 0.2 0.1
v 0.7 0.2 0.1
v -1 0.2 -2.98023e-008
v -0.9 0.2 -2.98023e-008
v -0.9 0.2 -0.1
v -0.8 0.2 -0.1
v 0.5 0.2 -0.2
v 0.6 0.2 -0.2
v 0.7 0.2 -0.2
v -1 0.2 -0.3
v -0.9 0.2 -0.3
v -0.8 0.2 -0.3
v 0.4 0.2 -0.3
v 0.5 0.2 -0.3
v 0.6 0.2 -0.3
v -0.9 0.2 -0.4
v -0.8 0.2 -0.4
v 0.4 0.2 -0.4
v 0.5 0.2 -0.4
v -0.8 0.2 -0.5
v 0.4 0.2 -0.5
v 0.5 0.2 0.2
v 0.6 0.2 0.2
v 0.5 0.2 0.1
v 0.6 0.2 0.1
v -0.7 0.3 0.3
v 0.5 0.3 0.3
v -0.8 0.3 0.2
v -0.7 0.3 0.2
v -0.6 0.3 0.2
v -0.5 0.3 0.2
v -0.3 0.3 0.2
v -0.2 0.3 0.2
v -7.45058e-009 0.3 0.2
v 0.1 0.3 0.2
v 0.4 0.3 0.2
v -0.9 0.3 0.1
v -0.8 0.3 0.1
v -0.7 0.3 0.1
v 0.4 0.3 0.1
v 0.5 0.3 0.1
v 0.6 0.3 0.1
v 0.7 0.3 0.1
v -1 0.3 -2.98023e-008
v -0.9 0.3 -2.98023e-008
v -0.8 0.3 -2.98023e-008
v 0.5 0.3 -0.2
v 0.6 0.3 -0.2
v 0.7 0.3 -0.2
v -1 0.3 -0.3
v -0.9 0.3 -0.3
v -0.8 0.3 -0.3
v 0.4 0.3 -0.3
v 0.5 0.3 -0.3
v 0.6 0.3 -0.3
v -0.9 0.3 -0.4
v -0.8 0.3 -0.4
v -0.6 0.3 -0.4
v -0.5 0.3 -0.4
v -0.3 0.3 -0.4
v -0.2 0.3 -0.4
v -7.45058e-009 0.3 -0.4
v 0.1 0.3 -0.4
v 0.4 0.3 -0.4
v 0.5 0.3 -0.4
v -0.8 0.3 -0.5
v 0.4 0.3 -0.5
v -0.7 0.4 0.2
v -0.6 0.4 0.2
v -0.5 0.4 0.2
v -0.3 0.4 0.2
v -0.2 0.4 0.2
v -7.45058e-009 0.4 0.2
v 0.1 0.4 0.2
v 0.4 0.4 0.2
v -0.8 0.4 0.1
v -0.7 0.4 0.1
v -0.6 0.4 0.1
v -0.5 0.4 0.1
v -0.3 0.4 0.1
v -0.2 0.4 0.1
v -7.45058e-009 0.4 0.1
v 0.1 0.4 0.1
v 0.4 0.4 0.1
v 0.5 0.4 0.1
v 0.6 0.4 0.1
v -0.9 0.4 -2.98023e-008
v -0.8 0.4 -2.98023e-008
v -0.7 0.4 -2.98023e-008
v 0.4 0.4 -0.2
v 0.5 0.4 -0.2
v 0.6 0.4 -0.2
v -0.9 0.4 -0.3
v -0.8 0.4 -0.3
v -0.6 0.4 -0.3
v -0.5 0.4 -0.3
v -0.3 0.4 -0.3
v -0.2 0.4 -0.3
v -7.45058e-009 0.4 -0.3
v 0.1 0.4 -0.3
v 0.4 0.4 -0.3
v 0.5 0.4 -0.3
v -0.8 0.4 -0.4
v -0.6 0.4 -0.4
v -0.5 0.4 -0.4
v -0.3 0.4 -0.4
v -0.2 0.4 -0.4
v -7.45058e-009 0.4 -0.4
v 0.1 0.4 -0.4
v 0.4 0.4 -0.4
v -0.7 0.5 0.1
v -0.6 0.5 0.1
v -0.5 0.5 0.1
v -0.3 0.5 0.1
v -0.2 0.5 0.1
v -7.45058e-009 0.5 0.1
v 0.1 0.5 0.1
v 0.5 0.5 0.1
v -0.8 0.5 -2.98023e-008
v -0.7 0.5 -2.98023e-008
v -0.6 0.5 -2.98023e-008
v -0.5 0.5 -2.98023e-008
v -0.4 0.5 -2.98023e-008
v -0.3 0.5 -2.98023e-008
v -0.2 0.5 -2.98023e-008
v -0.1 0.5 -2.98023e-008
v -7.45058e-009 0.5 -2.98023e-008
v 0.1 0.5 -2.98023e-008
v 0.2 0.5 -2.98023e-008
v -0.6 0.5 -0.2
v -0.5 0.5 -0.2
v -0.4 0.5 -0.2
v -0.3 0.5 -0.2
v -0.2 0.5 -0.2
v -0.1 0.5 -0.2
v -7.45058e-009 0.5 -0.2
v 0.1 0.5 -0.2
v 0.2 0.5 -0.2
v 0.4 0.5 -0.2
v 0.5 0.5 -0.2
v -0.8 0.5 -0.3
v -0.6 0.5 -0.3
v -0.5 0.5 -0.3
v -0.3 0.5 -0.3
v -0.2 0.5 -0.3
v -7.45058e-009 0.5 -0.3
v 0.1 0.5 -0.3
v 0.4 0.5 -0.3

# faces
f 3/2/1 2/2/1 1/2/1
f 4/2/1 2/2/1 3/2/1
f 9/2/1 6/2/1 5/2/1
f 10/2/1 6/2/1 9/2/1
f 12/2/1 8/2/1 7/2/1
f 13/2/1 8/2/1 12/2/1
f 14/2/1 11/2/1 10/2/1
f 15/2/1 11/2/1 14/2/1
f 16/2/1 14/2/1 13/2/1
f 17/2/1 14/2/1 16/2/1
f 23/2/1 19/2/1 18/2/1
f 24/2/1 19/2/1 23/2/1
f 25/2/1 21/2/1 20/2/1
f 26/2/1 21/2/1 25/2/1
f 28/2/1 23/2/1 22/2/1
f 29/2/1 23/2/1 28/2/1
f 32/2/1 27/2/1 26/2/1
f 33/2/1 27/2/1 32/2/1
f 34/2/1 30/2/1 29/2/1
f 35/2/1 30/2/1 34/2/1
f 36/2/1 32/2/1 31/2/1
f 37/2/1 32/2/1 36/2/1
f 38/2/1 36/2/1 35/2/1
f 39/2/1 36/2/1 38/2/1
f 43/2/1 41/2/1 40/2/1
f 44/2/1 41/2/1 43/2/1
f 45/2/1 43/2/1 42/2/1
f 46/2/1 43/2/1 45/2/1
f 48/2/1 47/2/1 46/2/1
f 49/2/1 47/2/1 48/2/1
f 51/2/1 50/2/1 49/2/1
f 52/2/1 50/2/1 51/2/1
f 53/2/2 54/2/2 55/2/2
f 55/2/2 54/2/2 56/2/2
f 56/2/2 57/2/2 61/2/2
f 61/2/2 57/2/2 62/2/2
f 58/2/2 59/2/2 63/2/2
f 63/2/2 59/2/2 64/2/2
f 60/2/2 61/2/2 66/2/2
f 66/2/2 61/2/2 67/2/2
f 65/2/2 66/2/2 68/2/2
f 68/2/2 66/2/2 69/2/2
f 70/2/2 71/2/2 75/2/2
f 75/2/2 71/2/2 76/2/2
f 73/2/2 74/2/2 78/2/2
f 72/2/2 73/2/2 78/2/2
f 78/2/2 74/2/2 79/2/2
f 76/2/2 77/2/2 81/2/2
f 81/2/2 77/2/2 82/2/2
f 80/2/2 81/2/2 84/2/2
f 84/2/2 81/2/2 85/2/2
f 83/2/2 84/2/2 86/2/2
f 86/2/2 84/2/2 87/2/2
f 88/2/2 89/2/2 90/2/2
f 90/2/2 89/2/2 91/2/2
f 91/2/2 89/2/2 92/2/2
f 92/2/2 93/2/2 95/2/2
f 95/2/2 93/2/2 96/2/2
f 94/2/2 95/2/2 97/2/2
f 97/2/2 95/2/2 98/2/2
f 99/2/2 100/2/2 101/2/2
f 101/2/2 100/2/2 102/2/2
f 105/2/3 104/2/3 103/2/3
f 106/2/3 104/2/3 105/2/3
f 110/2/3 108/2/3 107/2/3
f 111/2/3 108/2/3 110/2/3
f 113/2/3 112/2/3 111/2/3
f 114/2/3 112/2/3 113/2/3
f 115/1/3 114/1/3 113/1/3
f 116/1/3 114/1/3 115/1/3
f 117/2/3 116/2/3 115/2/3
f 118/2/3 116/2/3 117/2/3
f 119/1/3 118/1/3 117/1/3
f 120/1/3 118/1/3 119/1/3
f 121/2/3 120/2/3 119/2/3
f 122/2/3 120/2/3 121/2/3
f 123/1/3 122/1/3 121/1/3
f 124/1/3 122/1/3 123/1/3
f 125/2/3 124/2/3 123/2/3
f 126/2/3 124/2/3 125/2/3
f 127/2/3 110/2/3 109/2/3
f 128/2/3 127/2/3 109/2/3
f 129/2/3 127/2/3 128/2/3
f 133/2/3 131/2/3 130/2/3
f 134/2/3 131/2/3 133/2/3
f 136/2/3 133/2/3 132/2/3
f 137/2/3 133/2/3 136/2/3
f 138/2/3 135/2/3 134/2/3
f 139/2/3 135/2/3 138/2/3
f 141/2/3 140/2/3 139/2/3
f 142/2/3 140/2/3 141/2/3
f 143/1/3 142/1/3 141/1/3
f 144/1/3 142/1/3 143/1/3
f 145/2/3 144/2/3 143/2/3
f 146/2/3 144/2/3 145/2/3
f 147/1/3 146/1/3 145/1/3
f 148/1/3 146/1/3 147/1/3
f 149/2/3 148/2/3 147/2/3
f 150/2/3 148/2/3 149/2/3
f 151/1/3 150/1/3 149/1/3
f 152/1/3 150/1/3 151/1/3
f 154/2/3 152/2/3 151/2/3
f 156/2/3 154/2/3 153/2/3
f 157/2/3 152/2/3 154/2/3
f 157/2/3 154/2/3 156/2/3
f 158/2/3 152/2/3 157/2/3
f 159/2/3 156/2/3 155/2/3
f 159/2/3 157/2/3 156/2/3
f 160/2/3 157/2/3 159/2/3
f 161/2/3 157/2/3 160/2/3
f 162/2/3 160/2/3 159/2/3
f 163/2/3 160/2/3 162/2/3
f 166/2/3 165/2/3 164/2/3
f 167/2/3 165/2/3 166/2/3
f 169/2/3 168/2/3 167/2/3
f 170/2/3 168/2/3 169/2/3
f 172/2/3 171/2/3 170/2/3
f 173/2/3 171/2/3 172/2/3
f 176/2/3 175/2/3 174/2/3
f 177/2/3 175/2/3 176/2/3
f 178/2/4 179/2/4 183/2/4
f 183/2/4 179/2/4 184/2/4
f 180/2/4 181/2/4 185/2/4
f 185/2/4 181/2/4 186/2/4
f 182/2/4 183/2/4 187/2/4
f 187/2/4 183/2/4 188/2/4
f 186/2/4 187/2/4 189/2/4
f 189/2/4 187/2/4 190/2/4
f 191/2/4 192/2/4 194/2/4
f 194/2/4 192/2/4 195/2/4
f 193/2/4 194/2/4 197/2/4
f 197/2/4 194/2/4 198/2/4
f 195/2/4 196/2/4 199/2/4
f 199/2/4 196/2/4 200/2/4
f 200/2/4 201/2/4 202/2/4
f 202/2/4 201/2/4 203/2/4
f 202/1/4 203/1/4 204/1/4
f 204/1/4 203/1/4 205/1/4
f 204/2/4 205/2/4 206/2/4
f 206/2/4 205/2/4 207/2/4
f 206/1/4 207/1/4 208/1/4
f 208/1/4 207/1/4 209/1/4
f 208/2/4 209/2/4 210/2/4
f 210/2/4 209/2/4 211/2/4
f 210/1/4 211/1/4 212/1/4
f 212/1/4 211/1/4 213/1/4
f 212/2/4 213/2/4 217/2/4
f 217/2/4 213/2/4 218/2/4
f 214/2/4 215/2/4 219/2/4
f 219/2/4 215/2/4 220/2/4
f 216/2/4 217/2/4 221/2/4
f 221/2/4 217/2/4 222/2/4
f 220/2/4 221/2/4 223/2/4
f 223/2/4 221/2/4 224/2/4
f 225/2/4 226/2/4 228/2/4
f 228/2/4 226/2/4 229/2/4
f 229/2/4 230/2/4 231/2/4
f 231/2/4 230/2/4 232/2/4
f 231/1/4 232/1/4 233/1/4
f 233/1/4 232/1/4 234/1/4
f 233/2/4 234/2/4 235/2/4
f 235/2/4 234/2/4 236/2/4
f 235/1/4 236/1/4 237/1/4
f 237/1/4 236/1/4 238/1/4
f 237/2/4 238/2/4 239/2/4
f 239/2/4 238/2/4 240/2/4
f 239/1/4 240/1/4 241/1/4
f 241/1/4 240/1/4 242/1/4
f 227/2/4 228/2/4 243/2/4
f 243/2/4 228/2/4 244/2/4
f 241/2/4 242/2/4 245/2/4
f 245/2/4 242/2/4 246/2/4
f 244/2/4 245/2/4 247/2/4
f 247/2/4 245/2/4 248/2/4
f 249/2/4 250/2/4 251/2/4
f 251/2/4 250/2/4 252/2/4
f 256/2/5 254/2/5 253/2/5
f 258/2/5 256/2/5 255/2/5
f 259/2/5 254/2/5 256/2/5
f 259/2/5 258/2/5 257/2/5
f 259/2/5 256/2/5 258/2/5
f 260/2/5 254/2/5 259/2/5
f 261/2/5 259/2/5 257/2/5
f 262/2/5 259/2/5 261/2/5
f 263/2/5 259/2/5 262/2/5
f 264/2/5 259/2/5 263/2/5
f 265/2/5 263/2/5 262/2/5
f 266/2/5 263/2/5 265/2/5
f 270/2/5 268/2/5 267/2/5
f 271/2/5 268/2/5 270/2/5
f 273/2/5 270/2/5 269/2/5
f 274/2/5 270/2/5 273/2/5
f 278/2/5 273/2/5 272/2/5
f 279/2/5 273/2/5 278/2/5
f 279/2/5 278/2/5 277/2/5
f 280/2/5 273/2/5 279/2/5
f 282/2/5 276/2/5 275/2/5
f 283/2/5 276/2/5 282/2/5
f 284/2/5 279/2/5 277/2/5
f 285/2/5 279/2/5 284/2/5
f 288/2/5 282/2/5 281/2/5
f 289/2/5 282/2/5 288/2/5
f 290/2/5 286/2/5 285/2/5
f 291/2/5 286/2/5 290/2/5
f 292/2/5 288/2/5 287/2/5
f 293/2/5 288/2/5 292/2/5
f 294/2/5 292/2/5 291/2/5
f 295/2/5 292/2/5 294/2/5
f 296/2/6 297/2/6 298/2/6
f 298/2/6 297/2/6 299/2/6
f 300/2/6 301/2/6 303/2/6
f 303/2/6 301/2/6 304/2/6
f 304/2/6 301/2/6 305/2/6
f 305/2/6 301/2/6 306/2/6
f 306/2/6 301/2/6 307/2/6
f 307/2/6 301/2/6 308/2/6
f 308/2/6 301/2/6 309/2/6
f 309/2/6 301/2/6 310/2/6
f 302/2/6 303/2/6 312/2/6
f 312/2/6 303/2/6 313/2/6
f 310/2/6 301/2/6 314/2/6
f 314/2/6 301/2/6 315/2/6
f 311/2/6 312/2/6 319/2/6
f 319/2/6 312/2/6 320/2/6
f 316/2/6 317/2/6 322/2/6
f 322/2/6 317/2/6 323/2/6
f 318/2/6 319/2/6 324/2/6
f 324/2/6 319/2/6 325/2/6
f 321/2/6 322/2/6 328/2/6
f 328/2/6 322/2/6 329/2/6
f 325/2/6 326/2/6 330/2/6
f 330/2/6 326/2/6 331/2/6
f 327/2/6 328/2/6 338/2/6
f 338/2/6 328/2/6 339/2/6
f 336/2/6 337/2/6 340/2/6
f 337/2/6 338/2/6 340/2/6
f 331/2/6 332/2/6 340/2/6
f 335/2/6 336/2/6 340/2/6
f 334/2/6 335/2/6 340/2/6
f 333/2/6 334/2/6 340/2/6
f 332/2/6 333/2/6 340/2/6
f 340/2/6 338/2/6 341/2/6
f 342/2/6 343/2/6 351/2/6
f 343/1/6 344/1/6 352/1/6
f 351/2/6 343/2/6 352/2/6
f 344/2/6 345/2/6 353/2/6
f 352/1/6 344/1/6 353/1/6
f 345/1/6 346/1/6 354/1/6
f 353/2/6 345/2/6 354/2/6
f 346/2/6 347/2/6 355/2/6
f 354/1/6 346/1/6 355/1/6
f 347/1/6 348/1/6 356/1/6
f 355/2/6 347/2/6 356/2/6
f 348/2/6 349/2/6 357/2/6
f 356/1/6 348/1/6 357/1/6
f 357/2/6 349/2/6 358/2/6
f 350/2/6 351/2/6 362/2/6
f 362/2/6 351/2/6 363/2/6
f 359/2/6 360/2/6 365/2/6
f 365/2/6 360/2/6 366/2/6
f 361/2/6 362/2/6 367/2/6
f 367/2/6 362/2/6 368/2/6
f 364/2/6 365/2/6 375/2/6
f 375/2/6 365/2/6 376/2/6
f 368/2/6 369/2/6 377/2/6
f 369/1/6 370/1/6 378/1/6
f 377/2/6 369/2/6 378/2/6
f 370/2/6 371/2/6 379/2/6
f 378/1/6 370/1/6 379/1/6
f 371/1/6 372/1/6 380/1/6
f 379/2/6 371/2/6 380/2/6
f 372/2/6 373/2/6 381/2/6
f 380/1/6 372/1/6 381/1/6
f 373/1/6 374/1/6 382/1/6
f 381/2/6 373/2/6 382/2/6
f 374/2/6 375/2/6 383/2/6
f 382/1/6 374/1/6 383/1/6
f 383/2/6 375/2/6 384/2/6
f 385/2/6 386/2/6 394/2/6
f 386/1/6 387/1/6 395/1/6
f 394/2/6 386/2/6 395/2/6
f 387/2/6 388/2/6 396/2/6
f 395/1/6 387/1/6 396/1/6
f 396/2/6 388/2/6 397/2/6
f 388/1/6 389/1/6 398/1/6
f 397/2/6 388/2/6 398/2/6
f 389/2/6 390/2/6 399/2/6
f 398/1/6 389/1/6 399/1/6
f 399/2/6 390/2/6 400/2/6
f 390/1/6 391/1/6 401/1/6
f 400/2/6 390/2/6 401/2/6
f 391/2/6 392/2/6 402/2/6
f 401/1/6 391/1/6 402/1/6
f 402/2/6 392/2/6 403/2/6
f 393/2/6 394/2/6 404/2/6
f 394/2/6 395/2/6 404/2/6
f 395/2/6 396/2/6 404/2/6
f 396/1/6 397/1/6 405/1/6
f 404/2/6 396/2/6 405/2/6
f 397/2/6 398/2/6 406/2/6
f 405/1/6 397/1/6 406/1/6
f 398/2/6 399/2/6 406/2/6
f 406/2/6 399/2/6 407/2/6
f 399/1/6 400/1/6 408/1/6
f 407/2/6 399/2/6 408/2/6
f 400/2/6 401/2/6 409/2/6
f 408/1/6 400/1/6 409/1/6
f 401/2/6 402/2/6 409/2/6
f 409/2/6 402/2/6 410/2/6
f 402/1/6 403/1/6 411/1/6
f 410/2/6 402/2/6 411/2/6
f 403/2/6 392/2/6 412/2/6
f 411/1/6 403/1/6 412/1/6
f 412/2/6 392/2/6 413/2/6
f 413/2/6 392/2/6 414/2/6
f 393/2/6 404/2/6 415/2/6
f 404/1/6 405/1/6 416/1/6
f 415/2/6 404/2/6 416/2/6
f 406/2/6 407/2/6 417/2/6
f 416/1/6 405/1/6 417/1/6
f 405/2/6 406/2/6 417/2/6
f 407/1/6 408/1/6 418/1/6
f 417/2/6 407/2/6 418/2/6
f 409/2/6 410/2/6 419/2/6
f 418/1/6 408/1/6 419/1/6
f 408/2/6 409/2/6 419/2/6
f 410/1/6 411/1/6 420/1/6
f 419/2/6 410/2/6 420/2/6
f 412/2/6 413/2/6 421/2/6
f 420/1/6 411/1/6 421/1/6
f 411/2/6 412/2/6 421/2/6
f 421/2/6 413/2/6 422/2/6
