# MagicaVoxel @ Ephtracy

# group
o 

# material
mtllib bread.mtl
usemtl palette

# normals
vn -1 0 0
vn 1 0 0
vn 0 0 1
vn 0 0 -1
vn 0 -1 0
vn 0 1 0

# texcoords
vt 0.205078 0.5
vt 0.208984 0.5
vt 0.373047 0.5

# verts
v -0.4 0.1 0.1
v -0.4 0.1 -0.1
v -0.4 0.4 0.1
v -0.4 0.4 -0.1
v -0.3 0 0.2
v -0.3 0 -0.2
v -0.3 0.1 0.1
v -0.3 0.1 -0.1
v -0.3 0.3 -0.1
v -0.3 0.3 -0.2
v -0.3 0.4 0.2
v -0.3 0.4 0.1
v -0.3 0.4 -0.1
v -0.3 0.4 -0.2
v -0.3 0.5 0.1
v -0.3 0.5 -0.1
v -0.2 0 0.3
v -0.2 0 0.2
v -0.2 0 -0.2
v -0.2 0 -0.3
v -0.2 0.3 0.3
v -0.2 0.3 0.2
v -0.2 0.3 -0.2
v -0.2 0.4 0.3
v -0.2 0.4 0.2
v -0.2 0.4 0.1
v -0.2 0.4 -0.1
v -0.2 0.4 -0.2
v -0.2 0.4 -0.3
v -0.2 0.5 0.2
v -0.2 0.5 0.1
v -0.2 0.5 -7.45058e-009
v -0.2 0.5 -0.1
v -0.2 0.5 -0.2
v -0.2 0.6 0.1
v -0.2 0.6 -7.45058e-009
v -0.2 0.6 -0.1
v -0.1 0.1 0.4
v -0.1 0.1 0.3
v -0.1 0.1 -0.3
v -0.1 0.1 -0.4
v -0.1 0.3 0.3
v -0.1 0.4 0.4
v -0.1 0.4 0.3
v -0.1 0.4 0.2
v -0.1 0.4 -0.2
v -0.1 0.4 -0.3
v -0.1 0.4 -0.4
v -0.1 0.5 0.3
v -0.1 0.5 0.2
v -0.1 0.5 0.1
v -0.1 0.5 -0.1
v -0.1 0.5 -0.2
v -0.1 0.5 -0.3
v -0.1 0.6 0.2
v -0.1 0.6 0.1
v -0.1 0.6 -0.1
v -0.1 0.6 -0.2
v 0.1 0.1 0.4
v 0.1 0.1 0.3
v 0.1 0.1 -0.3
v 0.1 0.1 -0.4
v 0.1 0.3 -0.3
v 0.1 0.4 0.4
v 0.1 0.4 0.3
v 0.1 0.4 0.2
v 0.1 0.4 -0.2
v 0.1 0.4 -0.3
v 0.1 0.4 -0.4
v 0.1 0.5 0.3
v 0.1 0.5 0.2
v 0.1 0.5 0.1
v 0.1 0.5 -0.1
v 0.1 0.5 -0.2
v 0.1 0.5 -0.3
v 0.1 0.6 0.2
v 0.1 0.6 0.1
v 0.1 0.6 -0.1
v 0.1 0.6 -0.2
v 0.2 0 0.3
v 0.2 0 0.2
v 0.2 0 -0.2
v 0.2 0 -0.3
v 0.2 0.3 -0.2
v 0.2 0.3 -0.3
v 0.2 0.4 0.3
v 0.2 0.4 0.2
v 0.2 0.4 0.1
v 0.2 0.4 -0.1
v 0.2 0.4 -0.2
v 0.2 0.4 -0.3
v 0.2 0.5 0.2
v 0.2 0.5 0.1
v 0.2 0.5 -7.45058e-009
v 0.2 0.5 -0.1
v 0.2 0.5 -0.2
v 0.2 0.6 0.1
v 0.2 0.6 -7.45058e-009
v 0.2 0.6 -0.1
v 0.3 0 0.2
v 0.3 0 -0.2
v 0.3 0.1 0.1
v 0.3 0.1 -0.1
v 0.3 0.3 -0.1
v 0.3 0.4 0.2
v 0.3 0.4 0.1
v 0.3 0.4 -7.45058e-009
v 0.3 0.4 -0.1
v 0.3 0.4 -0.2
v 0.3 0.5 0.1
v 0.3 0.5 -0.1
v 0.4 0.1 0.1
v 0.4 0.1 -0.1
v 0.4 0.3 -7.45058e-009
v 0.4 0.3 -0.1
v 0.4 0.4 0.1
v 0.4 0.4 -7.45058e-009
v 0.4 0.4 -0.1
v -0.1 0.1 0.4
v -0.1 0.4 0.4
v 0.1 0.1 0.4
v 0.1 0.4 0.4
v -0.2 0 0.3
v -0.2 0.3 0.3
v -0.2 0.4 0.3
v -0.1 0.1 0.3
v -0.1 0.3 0.3
v -0.1 0.4 0.3
v -0.1 0.5 0.3
v 7.45058e-009 0.4 0.3
v 7.45058e-009 0.5 0.3
v 0.1 0.1 0.3
v 0.1 0.4 0.3
v 0.1 0.5 0.3
v 0.2 0 0.3
v 0.2 0.4 0.3
v -0.3 0 0.2
v -0.3 0.4 0.2
v -0.2 0 0.2
v -0.2 0.3 0.2
v -0.2 0.4 0.2
v -0.2 0.5 0.2
v -0.1 0.4 0.2
v -0.1 0.5 0.2
v -0.1 0.6 0.2
v 7.45058e-009 0.5 0.2
v 0.1 0.4 0.2
v 0.1 0.5 0.2
v 0.1 0.6 0.2
v 0.2 0 0.2
v 0.2 0.4 0.2
v 0.2 0.5 0.2
v 0.3 0 0.2
v 0.3 0.4 0.2
v -0.4 0.1 0.1
v -0.4 0.4 0.1
v -0.3 0.1 0.1
v -0.3 0.4 0.1
v -0.3 0.5 0.1
v -0.2 0.4 0.1
v -0.2 0.5 0.1
v -0.2 0.6 0.1
v -0.1 0.5 0.1
v -0.1 0.6 0.1
v 0.1 0.5 0.1
v 0.1 0.6 0.1
v 0.2 0.4 0.1
v 0.2 0.5 0.1
v 0.2 0.6 0.1
v 0.3 0.1 0.1
v 0.3 0.4 0.1
v 0.3 0.5 0.1
v 0.4 0.1 0.1
v 0.4 0.4 0.1
v -0.4 0.1 -0.1
v -0.4 0.4 -0.1
v -0.3 0.1 -0.1
v -0.3 0.3 -0.1
v -0.3 0.4 -0.1
v -0.3 0.5 -0.1
v -0.2 0.4 -0.1
v -0.2 0.5 -0.1
v -0.2 0.6 -0.1
v -0.1 0.5 -0.1
v -0.1 0.6 -0.1
v 0.1 0.5 -0.1
v 0.1 0.6 -0.1
v 0.2 0.4 -0.1
v 0.2 0.5 -0.1
v 0.2 0.6 -0.1
v 0.3 0.1 -0.1
v 0.3 0.3 -0.1
v 0.3 0.4 -0.1
v 0.3 0.5 -0.1
v 0.4 0.1 -0.1
v 0.4 0.3 -0.1
v 0.4 0.4 -0.1
v -0.3 0 -0.2
v -0.3 0.3 -0.2
v -0.3 0.4 -0.2
v -0.2 0 -0.2
v -0.2 0.3 -0.2
v -0.2 0.4 -0.2
v -0.2 0.5 -0.2
v -0.1 0.4 -0.2
v -0.1 0.5 -0.2
v -0.1 0.6 -0.2
v 7.45058e-009 0.5 -0.2
v 7.45058e-009 0.6 -0.2
v 0.1 0.4 -0.2
v 0.1 0.5 -0.2
v 0.1 0.6 -0.2
v 0.2 0 -0.2
v 0.2 0.3 -0.2
v 0.2 0.4 -0.2
v 0.2 0.5 -0.2
v 0.3 0 -0.2
v 0.3 0.4 -0.2
v -0.2 0 -0.3
v -0.2 0.4 -0.3
v -0.1 0.1 -0.3
v -0.1 0.4 -0.3
v -0.1 0.5 -0.3
v 7.45058e-009 0.4 -0.3
v 7.45058e-009 0.5 -0.3
v 0.1 0.1 -0.3
v 0.1 0.3 -0.3
v 0.1 0.4 -0.3
v 0.1 0.5 -0.3
v 0.2 0 -0.3
v 0.2 0.3 -0.3
v 0.2 0.4 -0.3
v -0.1 0.1 -0.4
v -0.1 0.4 -0.4
v 0.1 0.1 -0.4
v 0.1 0.4 -0.4
v -0.2 0 0.3
v 0.2 0 0.3
v -0.3 0 0.2
v -0.2 0 0.2
v 0.2 0 0.2
v 0.3 0 0.2
v -0.3 0 -0.2
v -0.2 0 -0.2
v 0.2 0 -0.2
v 0.3 0 -0.2
v -0.2 0 -0.3
v 0.2 0 -0.3
v -0.1 0.1 0.4
v 0.1 0.1 0.4
v -0.1 0.1 0.3
v 0.1 0.1 0.3
v -0.4 0.1 0.1
v -0.3 0.1 0.1
v 0.3 0.1 0.1
v 0.4 0.1 0.1
v -0.4 0.1 -0.1
v -0.3 0.1 -0.1
v 0.3 0.1 -0.1
v 0.4 0.1 -0.1
v -0.1 0.1 -0.3
v 0.1 0.1 -0.3
v -0.1 0.1 -0.4
v 0.1 0.1 -0.4
v -0.1 0.4 0.4
v 0.1 0.4 0.4
v -0.2 0.4 0.3
v -0.1 0.4 0.3
v 7.45058e-009 0.4 0.3
v 0.1 0.4 0.3
v 0.2 0.4 0.3
v -0.3 0.4 0.2
v -0.2 0.4 0.2
v -0.1 0.4 0.2
v 0.1 0.4 0.2
v 0.2 0.4 0.2
v 0.3 0.4 0.2
v -0.4 0.4 0.1
v -0.3 0.4 0.1
v -0.2 0.4 0.1
v 0.2 0.4 0.1
v 0.3 0.4 0.1
v 0.4 0.4 0.1
v 0.3 0.4 -7.45058e-009
v 0.4 0.4 -7.45058e-009
v -0.4 0.4 -0.1
v -0.3 0.4 -0.1
v -0.2 0.4 -0.1
v 0.2 0.4 -0.1
v 0.3 0.4 -0.1
v 0.4 0.4 -0.1
v -0.3 0.4 -0.2
v -0.2 0.4 -0.2
v -0.1 0.4 -0.2
v 0.1 0.4 -0.2
v 0.2 0.4 -0.2
v 0.3 0.4 -0.2
v -0.2 0.4 -0.3
v -0.1 0.4 -0.3
v 7.45058e-009 0.4 -0.3
v 0.1 0.4 -0.3
v 0.2 0.4 -0.3
v -0.1 0.4 -0.4
v 0.1 0.4 -0.4
v -0.1 0.5 0.3
v 7.45058e-009 0.5 0.3
v 0.1 0.5 0.3
v -0.2 0.5 0.2
v -0.1 0.5 0.2
v 7.45058e-009 0.5 0.2
v 0.1 0.5 0.2
v 0.2 0.5 0.2
v -0.3 0.5 0.1
v -0.2 0.5 0.1
v -0.1 0.5 0.1
v 0.1 0.5 0.1
v 0.2 0.5 0.1
v 0.3 0.5 0.1
v -0.2 0.5 -7.45058e-009
v 0.2 0.5 -7.45058e-009
v -0.3 0.5 -0.1
v -0.2 0.5 -0.1
v -0.1 0.5 -0.1
v 0.1 0.5 -0.1
v 0.2 0.5 -0.1
v 0.3 0.5 -0.1
v -0.2 0.5 -0.2
v -0.1 0.5 -0.2
v 7.45058e-009 0.5 -0.2
v 0.1 0.5 -0.2
v 0.2 0.5 -0.2
v -0.1 0.5 -0.3
v 7.45058e-009 0.5 -0.3
v 0.1 0.5 -0.3
v -0.1 0.6 0.2
v 0.1 0.6 0.2
v -0.2 0.6 0.1
v -0.1 0.6 0.1
v 0.1 0.6 0.1
v 0.2 0.6 0.1
v -0.2 0.6 -7.45058e-009
v -0.1 0.6 -7.45058e-009
v 0.1 0.6 -7.45058e-009
v 0.2 0.6 -7.45058e-009
v -0.2 0.6 -0.1
v -0.1 0.6 -0.1
v 7.45058e-009 0.6 -0.1
v 0.1 0.6 -0.1
v 0.2 0.6 -0.1
v -0.1 0.6 -0.2
v 7.45058e-009 0.6 -0.2
v 0.1 0.6 -0.2

# faces
f 3/3/1 2/3/1 1/3/1
f 4/3/1 2/3/1 3/3/1
f 7/3/1 6/3/1 5/3/1
f 8/3/1 6/3/1 7/3/1
f 9/3/1 6/3/1 8/3/1
f 10/3/1 6/3/1 9/3/1
f 11/3/1 7/3/1 5/3/1
f 12/3/1 7/3/1 11/3/1
f 13/2/1 10/2/1 9/2/1
f 14/2/1 10/2/1 13/2/1
f 15/3/1 13/3/1 12/3/1
f 16/3/1 13/3/1 15/3/1
f 21/3/1 18/3/1 17/3/1
f 22/3/1 18/3/1 21/3/1
f 23/3/1 20/3/1 19/3/1
f 24/2/1 22/2/1 21/2/1
f 25/2/1 22/2/1 24/2/1
f 28/3/1 20/3/1 23/3/1
f 29/3/1 20/3/1 28/3/1
f 30/3/1 26/3/1 25/3/1
f 31/3/1 26/3/1 30/3/1
f 33/3/1 28/3/1 27/3/1
f 34/3/1 28/3/1 33/3/1
f 35/2/1 32/2/1 31/2/1
f 36/3/1 33/3/1 32/3/1
f 36/2/1 32/2/1 35/2/1
f 37/3/1 33/3/1 36/3/1
f 42/3/1 39/3/1 38/3/1
f 43/3/1 42/3/1 38/3/1
f 44/3/1 42/3/1 43/3/1
f 47/3/1 41/3/1 40/3/1
f 48/3/1 41/3/1 47/3/1
f 49/3/1 45/3/1 44/3/1
f 50/3/1 45/3/1 49/3/1
f 53/2/1 47/2/1 46/2/1
f 54/2/1 47/2/1 53/2/1
f 55/3/1 51/3/1 50/3/1
f 56/3/1 51/3/1 55/3/1
f 57/3/1 53/3/1 52/3/1
f 58/3/1 53/3/1 57/3/1
f 61/3/2 62/3/2 63/3/2
f 59/3/2 60/3/2 64/3/2
f 64/3/2 60/3/2 65/3/2
f 63/3/2 62/3/2 68/3/2
f 68/3/2 62/3/2 69/3/2
f 65/2/2 66/2/2 70/2/2
f 70/2/2 66/2/2 71/2/2
f 67/3/2 68/3/2 74/3/2
f 74/3/2 68/3/2 75/3/2
f 71/3/2 72/3/2 76/3/2
f 76/3/2 72/3/2 77/3/2
f 73/2/2 74/2/2 78/2/2
f 78/2/2 74/2/2 79/2/2
f 82/3/2 83/3/2 84/3/2
f 84/3/2 83/3/2 85/3/2
f 80/3/2 81/3/2 86/3/2
f 86/3/2 81/3/2 87/3/2
f 84/2/2 85/2/2 90/2/2
f 90/2/2 85/2/2 91/2/2
f 87/3/2 88/3/2 92/3/2
f 92/3/2 88/3/2 93/3/2
f 89/3/2 90/3/2 95/3/2
f 95/3/2 90/3/2 96/3/2
f 93/2/2 94/2/2 97/2/2
f 94/3/2 95/3/2 98/3/2
f 97/2/2 94/2/2 98/2/2
f 98/3/2 95/3/2 99/3/2
f 100/3/2 101/3/2 102/3/2
f 102/3/2 101/3/2 103/3/2
f 103/3/2 101/3/2 104/3/2
f 100/3/2 102/3/2 105/3/2
f 105/3/2 102/3/2 106/3/2
f 104/3/2 101/3/2 108/3/2
f 108/3/2 101/3/2 109/3/2
f 106/3/2 107/3/2 110/3/2
f 107/3/2 108/3/2 110/3/2
f 110/3/2 108/3/2 111/3/2
f 112/3/2 113/3/2 114/3/2
f 114/3/2 113/3/2 115/3/2
f 112/3/2 114/3/2 116/3/2
f 114/2/2 115/2/2 117/2/2
f 116/3/2 114/3/2 117/3/2
f 117/2/2 115/2/2 118/2/2
f 121/3/3 120/3/3 119/3/3
f 122/3/3 120/3/3 121/3/3
f 126/3/3 124/3/3 123/3/3
f 127/2/3 125/2/3 124/2/3
f 127/3/3 124/3/3 126/3/3
f 128/2/3 125/2/3 127/2/3
f 130/3/3 129/3/3 128/3/3
f 131/3/3 129/3/3 130/3/3
f 132/3/3 126/3/3 123/3/3
f 133/2/3 131/2/3 130/2/3
f 134/2/3 131/2/3 133/2/3
f 135/3/3 132/3/3 123/3/3
f 135/3/3 133/3/3 132/3/3
f 136/3/3 133/3/3 135/3/3
f 139/3/3 138/3/3 137/3/3
f 140/3/3 138/3/3 139/3/3
f 141/3/3 138/3/3 140/3/3
f 143/3/3 142/3/3 141/3/3
f 144/3/3 142/3/3 143/3/3
f 146/3/3 145/3/3 144/3/3
f 148/3/3 145/3/3 146/3/3
f 149/3/3 145/3/3 148/3/3
f 151/3/3 148/3/3 147/3/3
f 152/3/3 148/3/3 151/3/3
f 153/3/3 151/3/3 150/3/3
f 154/3/3 151/3/3 153/3/3
f 157/3/3 156/3/3 155/3/3
f 158/3/3 156/3/3 157/3/3
f 160/3/3 159/3/3 158/3/3
f 161/3/3 159/3/3 160/3/3
f 163/2/3 162/2/3 161/2/3
f 164/2/3 162/2/3 163/2/3
f 168/2/3 166/2/3 165/2/3
f 169/2/3 166/2/3 168/2/3
f 171/3/3 168/3/3 167/3/3
f 172/3/3 168/3/3 171/3/3
f 173/3/3 171/3/3 170/3/3
f 174/3/3 171/3/3 173/3/3
f 175/3/4 176/3/4 177/3/4
f 177/3/4 176/3/4 178/3/4
f 178/3/4 176/3/4 179/3/4
f 179/3/4 180/3/4 181/3/4
f 181/3/4 180/3/4 182/3/4
f 182/3/4 183/3/4 184/3/4
f 184/3/4 183/3/4 185/3/4
f 186/3/4 187/3/4 189/3/4
f 189/3/4 187/3/4 190/3/4
f 188/3/4 189/3/4 193/3/4
f 193/3/4 189/3/4 194/3/4
f 191/3/4 192/3/4 195/3/4
f 192/2/4 193/2/4 196/2/4
f 195/3/4 192/3/4 196/3/4
f 196/2/4 193/2/4 197/2/4
f 198/3/4 199/3/4 201/3/4
f 199/2/4 200/2/4 202/2/4
f 201/3/4 199/3/4 202/3/4
f 202/2/4 200/2/4 203/2/4
f 203/3/4 204/3/4 205/3/4
f 205/3/4 204/3/4 206/3/4
f 206/3/4 207/3/4 208/3/4
f 208/3/4 207/3/4 209/3/4
f 208/2/4 209/2/4 211/2/4
f 211/2/4 209/2/4 212/2/4
f 210/3/4 211/3/4 215/3/4
f 215/3/4 211/3/4 216/3/4
f 213/3/4 214/3/4 217/3/4
f 214/3/4 215/3/4 217/3/4
f 217/3/4 215/3/4 218/3/4
f 219/3/4 220/3/4 221/3/4
f 221/3/4 220/3/4 222/3/4
f 222/2/4 223/2/4 224/2/4
f 224/2/4 223/2/4 225/2/4
f 219/3/4 221/3/4 226/3/4
f 224/3/4 225/3/4 228/3/4
f 228/3/4 225/3/4 229/3/4
f 226/3/4 227/3/4 230/3/4
f 219/3/4 226/3/4 230/3/4
f 227/2/4 228/2/4 231/2/4
f 230/3/4 227/3/4 231/3/4
f 231/2/4 228/2/4 232/2/4
f 233/3/4 234/3/4 235/3/4
f 235/3/4 234/3/4 236/3/4
f 240/3/5 238/3/5 237/3/5
f 241/3/5 238/3/5 240/3/5
f 243/3/5 240/3/5 239/3/5
f 243/3/5 242/3/5 241/3/5
f 243/3/5 241/3/5 240/3/5
f 244/3/5 242/3/5 243/3/5
f 245/3/5 242/3/5 244/3/5
f 246/3/5 242/3/5 245/3/5
f 247/3/5 245/3/5 244/3/5
f 248/3/5 245/3/5 247/3/5
f 251/3/5 250/3/5 249/3/5
f 252/3/5 250/3/5 251/3/5
f 257/3/5 254/3/5 253/3/5
f 258/3/5 254/3/5 257/3/5
f 259/3/5 256/3/5 255/3/5
f 260/3/5 256/3/5 259/3/5
f 263/3/5 262/3/5 261/3/5
f 264/3/5 262/3/5 263/3/5
f 265/3/6 266/3/6 268/3/6
f 268/3/6 266/3/6 269/3/6
f 269/3/6 266/3/6 270/3/6
f 267/2/6 268/2/6 273/2/6
f 273/2/6 268/2/6 274/2/6
f 270/3/6 271/3/6 275/3/6
f 275/3/6 271/3/6 276/3/6
f 272/3/6 273/3/6 279/3/6
f 279/3/6 273/3/6 280/3/6
f 276/3/6 277/3/6 281/3/6
f 281/3/6 277/3/6 282/3/6
f 282/3/6 283/3/6 284/3/6
f 284/3/6 283/3/6 285/3/6
f 278/3/6 279/3/6 286/3/6
f 286/3/6 279/3/6 287/3/6
f 284/2/6 285/2/6 290/2/6
f 290/2/6 285/2/6 291/2/6
f 287/2/6 288/2/6 292/2/6
f 292/2/6 288/2/6 293/2/6
f 289/3/6 290/3/6 296/3/6
f 296/3/6 290/3/6 297/3/6
f 293/3/6 294/3/6 298/3/6
f 298/3/6 294/3/6 299/3/6
f 295/2/6 296/2/6 301/2/6
f 301/2/6 296/2/6 302/2/6
f 299/3/6 300/3/6 303/3/6
f 300/3/6 301/3/6 303/3/6
f 303/3/6 301/3/6 304/3/6
f 305/3/6 306/3/6 309/3/6
f 306/2/6 307/2/6 310/2/6
f 309/3/6 306/3/6 310/3/6
f 310/2/6 307/2/6 311/2/6
f 308/3/6 309/3/6 314/3/6
f 314/3/6 309/3/6 315/3/6
f 311/3/6 312/3/6 316/3/6
f 316/3/6 312/3/6 317/3/6
f 313/3/6 314/3/6 319/3/6
f 317/3/6 318/3/6 320/3/6
f 313/3/6 319/3/6 321/3/6
f 321/3/6 319/3/6 322/3/6
f 320/3/6 318/3/6 325/3/6
f 325/3/6 318/3/6 326/3/6
f 322/3/6 323/3/6 327/3/6
f 327/3/6 323/3/6 328/3/6
f 324/3/6 325/3/6 330/3/6
f 330/3/6 325/3/6 331/3/6
f 328/2/6 329/2/6 332/2/6
f 329/3/6 330/3/6 333/3/6
f 332/2/6 329/2/6 333/2/6
f 333/3/6 330/3/6 334/3/6
f 335/3/6 336/3/6 338/3/6
f 338/3/6 336/3/6 339/3/6
f 337/2/6 338/2/6 341/2/6
f 338/3/6 339/3/6 342/3/6
f 341/2/6 338/2/6 342/2/6
f 339/2/6 340/2/6 343/2/6
f 342/3/6 339/3/6 343/3/6
f 343/2/6 340/2/6 344/2/6
f 341/3/6 342/3/6 345/3/6
f 342/3/6 343/3/6 345/3/6
f 343/3/6 344/3/6 345/3/6
f 345/3/6 344/3/6 346/3/6
f 346/3/6 344/3/6 347/3/6
f 347/3/6 344/3/6 348/3/6
f 348/3/6 344/3/6 349/3/6
f 346/3/6 347/3/6 350/3/6
f 347/2/6 348/2/6 351/2/6
f 350/3/6 347/3/6 351/3/6
f 351/2/6 348/2/6 352/2/6
