# MagicaVoxel @ Ephtracy

# group
o 

# material
mtllib fire_estinguisher.mtl
usemtl palette

# normals
vn -1 0 0
vn 1 0 0
vn 0 0 1
vn 0 0 -1
vn 0 -1 0
vn 0 1 0

# texcoords
vt 0.845703 0.5
vt 0.962891 0.5
vt 0.994141 0.5

# verts
v -0.5 0.1 0
v -0.5 0.1 -0.1
v -0.5 1.4 0
v -0.5 1.4 -0.1
v -0.3 0 0.1
v -0.3 0 -0.2
v -0.3 0.1 0
v -0.3 0.1 -0.1
v -0.3 0.2 0.1
v -0.3 0.2 0
v -0.3 0.2 -0.1
v -0.3 0.2 -0.2
v -0.3 1.2 0.1
v -0.3 1.2 -0.2
v -0.2 0 0.2
v -0.2 0 0.1
v -0.2 0 -0.2
v -0.2 0 -0.3
v -0.2 0.2 0.2
v -0.2 0.2 0.1
v -0.2 0.2 -0.2
v -0.2 0.2 -0.3
v -0.2 1.2 0.2
v -0.2 1.2 0.1
v -0.2 1.2 -0.2
v -0.2 1.2 -0.3
v -0.1 1.2 0
v -0.1 1.2 -0.1
v -0.1 1.3 0
v -0.1 1.3 -0.1
v 0.1 1.4 0
v 0.1 1.4 -0.1
v 0.1 1.5 0
v 0.1 1.5 -0.1
v -0.4 0.2 0
v -0.4 0.2 -0.1
v -0.4 1.3 0
v -0.4 1.3 -0.1
v 0 1.2 0
v 0 1.2 -0.1
v 0 1.3 0
v 0 1.3 -0.1
v 0.1 0 0.2
v 0.1 0 0.1
v 0.1 0 -0.2
v 0.1 0 -0.3
v 0.1 0.2 0.2
v 0.1 0.2 0.1
v 0.1 0.2 -0.2
v 0.1 0.2 -0.3
v 0.1 1.2 0.2
v 0.1 1.2 0.1
v 0.1 1.2 -0.2
v 0.1 1.2 -0.3
v 0.2 0 0.1
v 0.2 0 -0.2
v 0.2 0.2 0.1
v 0.2 0.2 -0.2
v 0.2 1.2 0.1
v 0.2 1.2 -0.2
v 0.2 1.4 0
v 0.2 1.4 -0.1
v 0.2 1.5 0
v 0.2 1.5 -0.1
v 0.3 1.3 0
v 0.3 1.3 -0.1
v 0.3 1.4 0
v 0.3 1.4 -0.1
v -0.2 0 0.2
v -0.2 0.2 0.2
v -0.2 1.2 0.2
v 0.1 0 0.2
v 0.1 0.2 0.2
v 0.1 1.2 0.2
v -0.3 0 0.1
v -0.3 0.2 0.1
v -0.3 1.2 0.1
v -0.2 0 0.1
v -0.2 0.2 0.1
v -0.2 1.2 0.1
v 0.1 0 0.1
v 0.1 0.2 0.1
v 0.1 1.2 0.1
v 0.2 0 0.1
v 0.2 0.2 0.1
v 0.2 1.2 0.1
v -0.5 0.1 0
v -0.5 1.4 0
v -0.4 0.2 0
v -0.4 1.3 0
v -0.3 0.1 0
v -0.3 0.2 0
v -0.1 1.2 0
v -0.1 1.3 0
v 0 1.2 0
v 0 1.3 0
v 0 1.4 0
v 0.1 1.4 0
v 0.1 1.5 0
v 0.2 1.4 0
v 0.2 1.5 0
v 0.3 1.3 0
v 0.3 1.4 0
v -0.5 0.1 -0.1
v -0.5 1.4 -0.1
v -0.4 0.2 -0.1
v -0.4 1.3 -0.1
v -0.3 0.1 -0.1
v -0.3 0.2 -0.1
v -0.1 1.2 -0.1
v -0.1 1.3 -0.1
v 0 1.2 -0.1
v 0 1.3 -0.1
v 0 1.4 -0.1
v 0.1 1.4 -0.1
v 0.1 1.5 -0.1
v 0.2 1.4 -0.1
v 0.2 1.5 -0.1
v 0.3 1.3 -0.1
v 0.3 1.4 -0.1
v -0.3 0 -0.2
v -0.3 0.2 -0.2
v -0.3 1.2 -0.2
v -0.2 0 -0.2
v -0.2 0.2 -0.2
v -0.2 1.2 -0.2
v 0.1 0 -0.2
v 0.1 0.2 -0.2
v 0.1 1.2 -0.2
v 0.2 0 -0.2
v 0.2 0.2 -0.2
v 0.2 1.2 -0.2
v -0.2 0 -0.3
v -0.2 0.2 -0.3
v -0.2 1.2 -0.3
v 0.1 0 -0.3
v 0.1 0.2 -0.3
v 0.1 1.2 -0.3
v -0.2 0 0.2
v 0.1 0 0.2
v -0.3 0 0.1
v -0.2 0 0.1
v 0.1 0 0.1
v 0.2 0 0.1
v -0.3 0 -0.2
v -0.2 0 -0.2
v 0.1 0 -0.2
v 0.2 0 -0.2
v -0.2 0 -0.3
v 0.1 0 -0.3
v -0.5 0.1 0
v -0.3 0.1 0
v -0.5 0.1 -0.1
v -0.3 0.1 -0.1
v -0.4 1.3 0
v -0.1 1.3 0
v 0 1.3 0
v 0.3 1.3 0
v -0.4 1.3 -0.1
v -0.1 1.3 -0.1
v 0 1.3 -0.1
v 0.3 1.3 -0.1
v -0.4 0.2 0
v -0.3 0.2 0
v -0.4 0.2 -0.1
v -0.3 0.2 -0.1
v -0.2 1.2 0.2
v 0.1 1.2 0.2
v -0.3 1.2 0.1
v -0.2 1.2 0.1
v 0.1 1.2 0.1
v 0.2 1.2 0.1
v -0.1 1.2 0
v 0 1.2 0
v -0.1 1.2 -0.1
v 0 1.2 -0.1
v -0.3 1.2 -0.2
v -0.2 1.2 -0.2
v 0.1 1.2 -0.2
v 0.2 1.2 -0.2
v -0.2 1.2 -0.3
v 0.1 1.2 -0.3
v -0.5 1.4 0
v 0 1.4 0
v 0.1 1.4 0
v 0.2 1.4 0
v 0.3 1.4 0
v -0.5 1.4 -0.1
v 0 1.4 -0.1
v 0.1 1.4 -0.1
v 0.2 1.4 -0.1
v 0.3 1.4 -0.1
v 0.1 1.5 0
v 0.2 1.5 0
v 0.1 1.5 -0.1
v 0.2 1.5 -0.1

# faces
f 3/3/1 2/3/1 1/3/1
f 4/3/1 2/3/1 3/3/1
f 7/3/1 6/3/1 5/3/1
f 8/3/1 6/3/1 7/3/1
f 9/3/1 7/3/1 5/3/1
f 10/3/1 7/3/1 9/3/1
f 11/3/1 6/3/1 8/3/1
f 12/3/1 6/3/1 11/3/1
f 13/1/1 10/1/1 9/1/1
f 13/1/1 11/1/1 10/1/1
f 13/1/1 12/1/1 11/1/1
f 14/1/1 12/1/1 13/1/1
f 19/3/1 16/3/1 15/3/1
f 20/3/1 16/3/1 19/3/1
f 21/3/1 18/3/1 17/3/1
f 22/3/1 18/3/1 21/3/1
f 23/1/1 20/1/1 19/1/1
f 24/1/1 20/1/1 23/1/1
f 25/1/1 22/1/1 21/1/1
f 26/1/1 22/1/1 25/1/1
f 29/1/1 28/1/1 27/1/1
f 30/1/1 28/1/1 29/1/1
f 33/2/1 32/2/1 31/2/1
f 34/2/1 32/2/1 33/2/1
f 35/3/2 36/3/2 37/3/2
f 37/3/2 36/3/2 38/3/2
f 39/1/2 40/1/2 41/1/2
f 41/1/2 40/1/2 42/1/2
f 43/3/2 44/3/2 47/3/2
f 47/3/2 44/3/2 48/3/2
f 45/3/2 46/3/2 49/3/2
f 49/3/2 46/3/2 50/3/2
f 47/1/2 48/1/2 51/1/2
f 51/1/2 48/1/2 52/1/2
f 49/1/2 50/1/2 53/1/2
f 53/1/2 50/1/2 54/1/2
f 55/3/2 56/3/2 57/3/2
f 57/3/2 56/3/2 58/3/2
f 57/1/2 58/1/2 59/1/2
f 59/1/2 58/1/2 60/1/2
f 61/2/2 62/2/2 63/2/2
f 63/2/2 62/2/2 64/2/2
f 65/2/2 66/2/2 67/2/2
f 67/2/2 66/2/2 68/2/2
f 72/3/3 70/3/3 69/3/3
f 73/1/3 71/1/3 70/1/3
f 73/3/3 70/3/3 72/3/3
f 74/1/3 71/1/3 73/1/3
f 78/3/3 76/3/3 75/3/3
f 79/1/3 77/1/3 76/1/3
f 79/3/3 76/3/3 78/3/3
f 80/1/3 77/1/3 79/1/3
f 84/3/3 82/3/3 81/3/3
f 85/1/3 83/1/3 82/1/3
f 85/3/3 82/3/3 84/3/3
f 86/1/3 83/1/3 85/1/3
f 89/3/3 88/3/3 87/3/3
f 90/3/3 88/3/3 89/3/3
f 91/3/3 89/3/3 87/3/3
f 92/3/3 89/3/3 91/3/3
f 94/3/3 88/3/3 90/3/3
f 95/1/3 94/1/3 93/1/3
f 96/3/3 88/3/3 94/3/3
f 96/1/3 94/1/3 95/1/3
f 97/3/3 88/3/3 96/3/3
f 98/2/3 97/2/3 96/2/3
f 100/2/3 98/2/3 96/2/3
f 100/2/3 99/2/3 98/2/3
f 101/2/3 99/2/3 100/2/3
f 102/2/3 100/2/3 96/2/3
f 103/2/3 100/2/3 102/2/3
f 104/3/4 105/3/4 106/3/4
f 106/3/4 105/3/4 107/3/4
f 104/3/4 106/3/4 108/3/4
f 108/3/4 106/3/4 109/3/4
f 107/3/4 105/3/4 111/3/4
f 110/1/4 111/1/4 112/1/4
f 111/3/4 105/3/4 113/3/4
f 112/1/4 111/1/4 113/1/4
f 113/3/4 105/3/4 114/3/4
f 113/2/4 114/2/4 115/2/4
f 113/2/4 115/2/4 117/2/4
f 115/2/4 116/2/4 117/2/4
f 117/2/4 116/2/4 118/2/4
f 113/2/4 117/2/4 119/2/4
f 119/2/4 117/2/4 120/2/4
f 121/3/4 122/3/4 124/3/4
f 122/1/4 123/1/4 125/1/4
f 124/3/4 122/3/4 125/3/4
f 125/1/4 123/1/4 126/1/4
f 127/3/4 128/3/4 130/3/4
f 128/1/4 129/1/4 131/1/4
f 130/3/4 128/3/4 131/3/4
f 131/1/4 129/1/4 132/1/4
f 133/3/4 134/3/4 136/3/4
f 134/1/4 135/1/4 137/1/4
f 136/3/4 134/3/4 137/3/4
f 137/1/4 135/1/4 138/1/4
f 142/3/5 140/3/5 139/3/5
f 143/3/5 140/3/5 142/3/5
f 145/3/5 142/3/5 141/3/5
f 145/3/5 144/3/5 143/3/5
f 145/3/5 143/3/5 142/3/5
f 146/3/5 144/3/5 145/3/5
f 147/3/5 144/3/5 146/3/5
f 148/3/5 144/3/5 147/3/5
f 149/3/5 147/3/5 146/3/5
f 150/3/5 147/3/5 149/3/5
f 153/3/5 152/3/5 151/3/5
f 154/3/5 152/3/5 153/3/5
f 159/3/5 156/3/5 155/3/5
f 160/3/5 156/3/5 159/3/5
f 161/2/5 158/2/5 157/2/5
f 162/2/5 158/2/5 161/2/5
f 163/3/6 164/3/6 165/3/6
f 165/3/6 164/3/6 166/3/6
f 167/1/6 168/1/6 170/1/6
f 170/1/6 168/1/6 171/1/6
f 169/1/6 170/1/6 173/1/6
f 171/1/6 172/1/6 173/1/6
f 170/1/6 171/1/6 173/1/6
f 173/1/6 172/1/6 174/1/6
f 169/1/6 173/1/6 175/1/6
f 174/1/6 172/1/6 176/1/6
f 169/1/6 175/1/6 177/1/6
f 175/1/6 176/1/6 177/1/6
f 177/1/6 176/1/6 178/1/6
f 176/1/6 172/1/6 179/1/6
f 178/1/6 176/1/6 179/1/6
f 179/1/6 172/1/6 180/1/6
f 178/1/6 179/1/6 181/1/6
f 181/1/6 179/1/6 182/1/6
f 183/3/6 184/3/6 188/3/6
f 184/2/6 185/2/6 189/2/6
f 188/3/6 184/3/6 189/3/6
f 189/2/6 185/2/6 190/2/6
f 186/2/6 187/2/6 191/2/6
f 191/2/6 187/2/6 192/2/6
f 193/2/6 194/2/6 195/2/6
f 195/2/6 194/2/6 196/2/6
