# MagicaVoxel @ Ephtracy

# group
o 

# material
mtllib steak.mtl
usemtl palette

# normals
vn -1 0 0
vn 1 0 0
vn 0 0 1
vn 0 0 -1
vn 0 -1 0
vn 0 1 0

# texcoords
vt 0.853516 0.5
vt 0.958984 0.5
vt 0.962891 0.5

# verts
v -0.4 0 0.2
v -0.4 0 -0.1
v -0.4 0.2 0.2
v -0.4 0.2 -0.1
v -0.3 0 0.3
v -0.3 0 0.2
v -0.3 0 -0.1
v -0.3 0 -0.2
v -0.3 0.2 0.3
v -0.3 0.2 0.2
v -0.3 0.2 -0.1
v -0.3 0.2 -0.2
v -0.2 0 0.4
v -0.2 0 0.3
v -0.2 0 -0.2
v -0.2 0 -0.3
v -0.2 0.2 0.4
v -0.2 0.2 0.3
v -0.2 0.2 -0.2
v -0.2 0.2 -0.3
v 7.45058e-009 0 -0.3
v 7.45058e-009 0 -0.4
v 7.45058e-009 0.2 -0.3
v 7.45058e-009 0.2 -0.4
v 0.1 0 0.4
v 0.1 0 0.3
v 0.1 0.2 0.4
v 0.1 0.2 0.3
v 0.2 0 0.3
v 0.2 0 0.2
v 0.2 0.2 0.3
v 0.2 0.2 0.2
v 0.3 0 0.2
v 0.3 0 -7.45058e-009
v 0.3 0.2 0.2
v 0.3 0.2 -7.45058e-009
v 0.4 0 -7.45058e-009
v 0.4 0 -0.3
v 0.4 0 -0.4
v 0.4 0.2 -7.45058e-009
v 0.4 0.2 -0.3
v 0.4 0.2 -0.4
v -0.2 0 0.4
v -0.2 0.2 0.4
v 0.1 0 0.4
v 0.1 0.2 0.4
v -0.3 0 0.3
v -0.3 0.2 0.3
v -0.2 0 0.3
v -0.2 0.2 0.3
v 0.1 0 0.3
v 0.1 0.2 0.3
v 0.2 0 0.3
v 0.2 0.2 0.3
v -0.4 0 0.2
v -0.4 0.2 0.2
v -0.3 0 0.2
v -0.3 0.2 0.2
v 0.2 0 0.2
v 0.2 0.2 0.2
v 0.3 0 0.2
v 0.3 0.2 0.2
v 0.3 0 -7.45058e-009
v 0.3 0.2 -7.45058e-009
v 0.4 0 -7.45058e-009
v 0.4 0.2 -7.45058e-009
v -0.4 0 -0.1
v -0.4 0.2 -0.1
v -0.3 0 -0.1
v -0.3 0.2 -0.1
v -0.3 0 -0.2
v -0.3 0.2 -0.2
v -0.2 0 -0.2
v -0.2 0.2 -0.2
v -0.2 0 -0.3
v -0.2 0.2 -0.3
v 7.45058e-009 0 -0.3
v 7.45058e-009 0.2 -0.3
v 7.45058e-009 0 -0.4
v 7.45058e-009 0.2 -0.4
v 0.4 0 -0.4
v 0.4 0.2 -0.4
v -0.2 0 0.4
v 0.1 0 0.4
v -0.3 0 0.3
v -0.2 0 0.3
v 0.1 0 0.3
v 0.2 0 0.3
v -0.4 0 0.2
v -0.3 0 0.2
v 0.1 0 0.2
v 0.2 0 0.2
v 0.3 0 0.2
v 0.2 0 -7.45058e-009
v 0.3 0 -7.45058e-009
v 0.4 0 -7.45058e-009
v -0.4 0 -0.1
v -0.3 0 -0.1
v -0.2 0 -0.1
v -0.3 0 -0.2
v -0.2 0 -0.2
v 7.45058e-009 0 -0.2
v -0.2 0 -0.3
v 7.45058e-009 0 -0.3
v 0.4 0 -0.3
v 7.45058e-009 0 -0.4
v 0.4 0 -0.4
v -0.2 0.2 0.4
v 0.1 0.2 0.4
v -0.3 0.2 0.3
v -0.2 0.2 0.3
v 7.45058e-009 0.2 0.3
v 0.1 0.2 0.3
v 0.2 0.2 0.3
v -0.4 0.2 0.2
v -0.3 0.2 0.2
v 0.1 0.2 0.2
v 0.2 0.2 0.2
v 0.3 0.2 0.2
v -0.2 0.2 0.1
v 7.45058e-009 0.2 0.1
v 0.2 0.2 -7.45058e-009
v 0.3 0.2 -7.45058e-009
v 0.4 0.2 -7.45058e-009
v -0.4 0.2 -0.1
v -0.3 0.2 -0.1
v -0.2 0.2 -0.1
v -0.3 0.2 -0.2
v -0.2 0.2 -0.2
v 7.45058e-009 0.2 -0.2
v -0.2 0.2 -0.3
v 7.45058e-009 0.2 -0.3
v 0.4 0.2 -0.3
v 7.45058e-009 0.2 -0.4
v 0.4 0.2 -0.4

# faces
f 3/2/1 2/2/1 1/2/1
f 4/2/1 2/2/1 3/2/1
f 9/1/1 6/1/1 5/1/1
f 10/1/1 6/1/1 9/1/1
f 11/2/1 8/2/1 7/2/1
f 12/2/1 8/2/1 11/2/1
f 17/1/1 14/1/1 13/1/1
f 18/1/1 14/1/1 17/1/1
f 19/2/1 16/2/1 15/2/1
f 20/2/1 16/2/1 19/2/1
f 23/2/1 22/2/1 21/2/1
f 24/2/1 22/2/1 23/2/1
f 25/1/2 26/1/2 27/1/2
f 27/1/2 26/1/2 28/1/2
f 29/2/2 30/2/2 31/2/2
f 31/2/2 30/2/2 32/2/2
f 33/2/2 34/2/2 35/2/2
f 35/2/2 34/2/2 36/2/2
f 37/1/2 38/1/2 40/1/2
f 38/2/2 39/2/2 41/2/2
f 40/1/2 38/1/2 41/1/2
f 41/2/2 39/2/2 42/2/2
f 45/1/3 44/1/3 43/1/3
f 46/1/3 44/1/3 45/1/3
f 49/1/3 48/1/3 47/1/3
f 50/1/3 48/1/3 49/1/3
f 53/2/3 52/2/3 51/2/3
f 54/2/3 52/2/3 53/2/3
f 57/2/3 56/2/3 55/2/3
f 58/2/3 56/2/3 57/2/3
f 61/2/3 60/2/3 59/2/3
f 62/2/3 60/2/3 61/2/3
f 65/1/3 64/1/3 63/1/3
f 66/1/3 64/1/3 65/1/3
f 67/2/4 68/2/4 69/2/4
f 69/2/4 68/2/4 70/2/4
f 71/2/4 72/2/4 73/2/4
f 73/2/4 72/2/4 74/2/4
f 75/2/4 76/2/4 77/2/4
f 77/2/4 76/2/4 78/2/4
f 79/2/4 80/2/4 81/2/4
f 81/2/4 80/2/4 82/2/4
f 86/1/5 84/1/5 83/1/5
f 87/1/5 84/1/5 86/1/5
f 90/1/5 86/1/5 85/1/5
f 90/1/5 87/1/5 86/1/5
f 91/2/5 88/2/5 87/2/5
f 91/1/5 87/1/5 90/1/5
f 92/2/5 88/2/5 91/2/5
f 94/1/5 91/1/5 90/1/5
f 94/2/5 93/2/5 92/2/5
f 94/1/5 92/1/5 91/1/5
f 95/2/5 93/2/5 94/2/5
f 97/2/5 90/2/5 89/2/5
f 98/1/5 96/1/5 95/1/5
f 98/2/5 90/2/5 97/2/5
f 98/1/5 94/1/5 90/1/5
f 98/1/5 95/1/5 94/1/5
f 99/1/5 96/1/5 98/1/5
f 100/2/5 99/2/5 98/2/5
f 101/1/5 96/1/5 99/1/5
f 101/2/5 99/2/5 100/2/5
f 102/1/5 96/1/5 101/1/5
f 103/2/5 102/2/5 101/2/5
f 104/1/5 96/1/5 102/1/5
f 104/2/5 102/2/5 103/2/5
f 105/1/5 96/1/5 104/1/5
f 106/2/5 105/2/5 104/2/5
f 107/2/5 105/2/5 106/2/5
f 108/1/6 109/1/6 111/1/6
f 111/1/6 109/1/6 112/1/6
f 112/1/6 109/1/6 113/1/6
f 110/1/6 111/1/6 116/1/6
f 113/2/6 114/2/6 117/2/6
f 112/1/6 113/1/6 117/1/6
f 117/2/6 114/2/6 118/2/6
f 111/3/6 112/3/6 120/3/6
f 116/1/6 111/1/6 120/1/6
f 117/1/6 118/1/6 121/1/6
f 120/3/6 112/3/6 121/3/6
f 112/1/6 117/1/6 121/1/6
f 118/2/6 119/2/6 122/2/6
f 121/1/6 118/1/6 122/1/6
f 120/1/6 121/1/6 122/1/6
f 122/2/6 119/2/6 123/2/6
f 115/2/6 116/2/6 125/2/6
f 123/1/6 124/1/6 126/1/6
f 125/2/6 116/2/6 126/2/6
f 116/1/6 120/1/6 126/1/6
f 122/1/6 123/1/6 126/1/6
f 120/1/6 122/1/6 126/1/6
f 126/1/6 124/1/6 127/1/6
f 126/2/6 127/2/6 128/2/6
f 127/1/6 124/1/6 129/1/6
f 128/2/6 127/2/6 129/2/6
f 129/1/6 124/1/6 130/1/6
f 129/2/6 130/2/6 131/2/6
f 130/1/6 124/1/6 132/1/6
f 131/2/6 130/2/6 132/2/6
f 132/1/6 124/1/6 133/1/6
f 132/2/6 133/2/6 134/2/6
f 134/2/6 133/2/6 135/2/6
