# MagicaVoxel @ Ephtracy

# group
o 

# material
mtllib stove_on.mtl
usemtl palette

# normals
vn -1 0 0
vn 1 0 0
vn 0 0 1
vn 0 0 -1
vn 0 -1 0
vn 0 1 0

# texcoords
vt 0.849609 0.5
vt 0.892578 0.5
vt 0.978516 0.5
vt 0.982422 0.5
vt 0.994141 0.5

# verts
v -1 0 1
v -1 0 -1
v -1 2 1
v -1 2 -1
v 1 0 1
v 1 0 -1
v 1 1.6 -0.5
v 1 1.6 -0.7
v 1 1.8 -0.5
v 1 1.8 -0.7
v 1 2 1
v 1 2 -1
v -1 0 1
v -1 2 1
v 1 0 1
v 1 2 1
v -1 0 -1
v -1 2 -1
v 1 0 -1
v 1 2 -1
v -1 0 1
v 1 0 1
v -1 0 -1
v 1 0 -1
v -1 2 1
v 1 2 1
v -0.9 2 0.9
v 0.9 2 0.9
v 0.7 2 0.7
v 0.8 2 0.7
v -0.3 2 0.6
v -0.1 2 0.6
v 0.7 2 0.6
v 0.8 2 0.6
v -0.5 2 0.5
v -0.3 2 0.5
v -0.1 2 0.5
v 0.1 2 0.5
v -0.6 2 0.4
v -0.5 2 0.4
v -0.3 2 0.4
v -0.1 2 0.4
v 0.1 2 0.4
v 0.2 2 0.4
v 0.7 2 0.4
v 0.8 2 0.4
v -0.7 2 0.3
v -0.6 2 0.3
v -0.5 2 0.3
v -0.4 2 0.3
v -0.3 2 0.3
v -0.1 2 0.3
v 0 2 0.3
v 0.1 2 0.3
v 0.2 2 0.3
v 0.3 2 0.3
v 0.7 2 0.3
v 0.8 2 0.3
v -0.5 2 0.2
v -0.4 2 0.2
v -0.3 2 0.2
v -0.1 2 0.2
v 0 2 0.2
v 0.1 2 0.2
v -0.8 2 0.1
v -0.7 2 0.1
v -0.6 2 0.1
v -0.5 2 0.1
v -0.4 2 0.1
v 0 2 0.1
v 0.1 2 0.1
v 0.2 2 0.1
v 0.3 2 0.1
v 0.4 2 0.1
v 0.7 2 0.1
v 0.8 2 0.1
v 0.7 2 0
v 0.8 2 0
v -0.8 2 -0.1
v -0.7 2 -0.1
v -0.6 2 -0.1
v -0.5 2 -0.1
v -0.4 2 -0.1
v 0 2 -0.1
v 0.1 2 -0.1
v 0.2 2 -0.1
v 0.3 2 -0.1
v 0.4 2 -0.1
v -0.5 2 -0.2
v -0.4 2 -0.2
v -0.3 2 -0.2
v -0.1 2 -0.2
v 0 2 -0.2
v 0.1 2 -0.2
v 0.7 2 -0.2
v 0.8 2 -0.2
v -0.7 2 -0.3
v -0.6 2 -0.3
v -0.5 2 -0.3
v -0.4 2 -0.3
v -0.3 2 -0.3
v -0.1 2 -0.3
v 0 2 -0.3
v 0.1 2 -0.3
v 0.2 2 -0.3
v 0.3 2 -0.3
v 0.7 2 -0.3
v 0.8 2 -0.3
v -0.6 2 -0.4
v -0.5 2 -0.4
v -0.3 2 -0.4
v -0.1 2 -0.4
v 0.1 2 -0.4
v 0.2 2 -0.4
v -0.5 2 -0.5
v -0.3 2 -0.5
v -0.1 2 -0.5
v 0.1 2 -0.5
v 0.7 2 -0.5
v 0.8 2 -0.5
v -0.3 2 -0.6
v -0.1 2 -0.6
v 0.7 2 -0.6
v 0.8 2 -0.6
v -0.9 2 -0.9
v 0.9 2 -0.9
v -1 2 -1
v 1 2 -1

# faces
f 3/4/1 2/4/1 1/4/1
f 4/4/1 2/4/1 3/4/1
f 5/4/2 6/4/2 7/4/2
f 7/4/2 6/4/2 8/4/2
f 5/4/2 7/4/2 9/4/2
f 7/2/2 8/2/2 9/2/2
f 8/4/2 6/4/2 10/4/2
f 9/2/2 8/2/2 10/2/2
f 5/4/2 9/4/2 11/4/2
f 9/4/2 10/4/2 11/4/2
f 10/4/2 6/4/2 12/4/2
f 11/4/2 10/4/2 12/4/2
f 15/4/3 14/4/3 13/4/3
f 16/4/3 14/4/3 15/4/3
f 17/4/4 18/4/4 19/4/4
f 19/4/4 18/4/4 20/4/4
f 23/4/5 22/4/5 21/4/5
f 24/4/5 22/4/5 23/4/5
f 25/4/6 26/4/6 27/4/6
f 27/4/6 26/4/6 28/4/6
f 27/5/6 28/5/6 29/5/6
f 29/5/6 28/5/6 30/5/6
f 27/5/6 29/5/6 31/5/6
f 31/5/6 29/5/6 32/5/6
f 29/3/6 30/3/6 33/3/6
f 32/5/6 29/5/6 33/5/6
f 30/5/6 28/5/6 34/5/6
f 33/3/6 30/3/6 34/3/6
f 27/5/6 31/5/6 35/5/6
f 31/3/6 32/3/6 36/3/6
f 35/5/6 31/5/6 36/5/6
f 32/5/6 33/5/6 37/5/6
f 36/3/6 32/3/6 37/3/6
f 33/5/6 34/5/6 37/5/6
f 37/5/6 34/5/6 38/5/6
f 27/5/6 35/5/6 39/5/6
f 35/3/6 36/3/6 40/3/6
f 39/5/6 35/5/6 40/5/6
f 36/1/6 37/1/6 41/1/6
f 40/3/6 36/3/6 41/3/6
f 37/3/6 38/3/6 42/3/6
f 41/1/6 37/1/6 42/1/6
f 38/5/6 34/5/6 43/5/6
f 42/3/6 38/3/6 43/3/6
f 43/5/6 34/5/6 44/5/6
f 44/5/6 34/5/6 45/5/6
f 34/5/6 28/5/6 46/5/6
f 45/5/6 34/5/6 46/5/6
f 27/5/6 39/5/6 47/5/6
f 39/3/6 40/3/6 48/3/6
f 47/5/6 39/5/6 48/5/6
f 41/1/6 42/1/6 49/1/6
f 48/3/6 40/3/6 49/3/6
f 40/1/6 41/1/6 49/1/6
f 42/1/6 43/1/6 49/1/6
f 49/1/6 43/1/6 50/1/6
f 50/1/6 43/1/6 51/1/6
f 51/1/6 43/1/6 52/1/6
f 52/1/6 43/1/6 53/1/6
f 43/3/6 44/3/6 54/3/6
f 53/1/6 43/1/6 54/1/6
f 44/5/6 45/5/6 55/5/6
f 54/3/6 44/3/6 55/3/6
f 55/5/6 45/5/6 56/5/6
f 45/3/6 46/3/6 57/3/6
f 56/5/6 45/5/6 57/5/6
f 46/5/6 28/5/6 58/5/6
f 57/3/6 46/3/6 58/3/6
f 48/1/6 49/1/6 59/1/6
f 49/1/6 50/1/6 59/1/6
f 50/3/6 51/3/6 60/3/6
f 59/1/6 50/1/6 60/1/6
f 51/1/6 52/1/6 61/1/6
f 60/3/6 51/3/6 61/3/6
f 52/3/6 53/3/6 62/3/6
f 61/1/6 52/1/6 62/1/6
f 53/1/6 54/1/6 63/1/6
f 62/3/6 53/3/6 63/3/6
f 54/1/6 55/1/6 63/1/6
f 63/1/6 55/1/6 64/1/6
f 27/5/6 47/5/6 65/5/6
f 47/3/6 48/3/6 66/3/6
f 65/5/6 47/5/6 66/5/6
f 48/1/6 59/1/6 67/1/6
f 66/3/6 48/3/6 67/3/6
f 59/3/6 60/3/6 68/3/6
f 67/1/6 59/1/6 68/1/6
f 61/1/6 62/1/6 69/1/6
f 68/3/6 60/3/6 69/3/6
f 60/1/6 61/1/6 69/1/6
f 62/1/6 63/1/6 69/1/6
f 63/3/6 64/3/6 70/3/6
f 69/1/6 63/1/6 70/1/6
f 64/1/6 55/1/6 71/1/6
f 70/3/6 64/3/6 71/3/6
f 55/3/6 56/3/6 72/3/6
f 71/1/6 55/1/6 72/1/6
f 56/5/6 57/5/6 73/5/6
f 72/3/6 56/3/6 73/3/6
f 57/5/6 58/5/6 73/5/6
f 73/5/6 58/5/6 74/5/6
f 74/5/6 58/5/6 75/5/6
f 58/5/6 28/5/6 76/5/6
f 75/5/6 58/5/6 76/5/6
f 74/5/6 75/5/6 77/5/6
f 75/3/6 76/3/6 77/3/6
f 76/5/6 28/5/6 78/5/6
f 77/3/6 76/3/6 78/3/6
f 27/5/6 65/5/6 79/5/6
f 65/3/6 66/3/6 79/3/6
f 71/1/6 72/1/6 80/1/6
f 79/3/6 66/3/6 80/3/6
f 67/1/6 68/1/6 80/1/6
f 69/1/6 70/1/6 80/1/6
f 72/1/6 73/1/6 80/1/6
f 70/1/6 71/1/6 80/1/6
f 66/1/6 67/1/6 80/1/6
f 68/1/6 69/1/6 80/1/6
f 80/1/6 73/1/6 81/1/6
f 81/1/6 73/1/6 82/1/6
f 82/1/6 73/1/6 83/1/6
f 83/1/6 73/1/6 84/1/6
f 84/1/6 73/1/6 85/1/6
f 85/1/6 73/1/6 86/1/6
f 73/3/6 74/3/6 87/3/6
f 86/1/6 73/1/6 87/1/6
f 77/5/6 78/5/6 88/5/6
f 87/3/6 74/3/6 88/3/6
f 74/5/6 77/5/6 88/5/6
f 81/1/6 82/1/6 89/1/6
f 82/3/6 83/3/6 89/3/6
f 83/1/6 84/1/6 90/1/6
f 89/3/6 83/3/6 90/3/6
f 90/1/6 84/1/6 91/1/6
f 91/1/6 84/1/6 92/1/6
f 84/3/6 85/3/6 93/3/6
f 92/1/6 84/1/6 93/1/6
f 85/1/6 86/1/6 94/1/6
f 93/3/6 85/3/6 94/3/6
f 88/5/6 78/5/6 95/5/6
f 87/5/6 88/5/6 95/5/6
f 78/5/6 28/5/6 96/5/6
f 95/5/6 78/5/6 96/5/6
f 79/5/6 80/5/6 97/5/6
f 80/3/6 81/3/6 97/3/6
f 81/1/6 89/1/6 98/1/6
f 97/3/6 81/3/6 98/3/6
f 89/1/6 90/1/6 98/1/6
f 98/1/6 90/1/6 99/1/6
f 90/3/6 91/3/6 100/3/6
f 99/1/6 90/1/6 100/1/6
f 91/1/6 92/1/6 101/1/6
f 100/3/6 91/3/6 101/3/6
f 92/3/6 93/3/6 102/3/6
f 101/1/6 92/1/6 102/1/6
f 93/1/6 94/1/6 103/1/6
f 102/3/6 93/3/6 103/3/6
f 94/1/6 86/1/6 104/1/6
f 103/1/6 94/1/6 104/1/6
f 86/3/6 87/3/6 105/3/6
f 104/1/6 86/1/6 105/1/6
f 87/5/6 95/5/6 106/5/6
f 105/3/6 87/3/6 106/3/6
f 95/3/6 96/3/6 107/3/6
f 106/5/6 95/5/6 107/5/6
f 96/5/6 28/5/6 108/5/6
f 107/3/6 96/3/6 108/3/6
f 98/3/6 99/3/6 109/3/6
f 97/5/6 98/5/6 109/5/6
f 100/1/6 101/1/6 110/1/6
f 109/3/6 99/3/6 110/3/6
f 103/1/6 104/1/6 110/1/6
f 99/1/6 100/1/6 110/1/6
f 102/1/6 103/1/6 110/1/6
f 101/1/6 102/1/6 110/1/6
f 110/1/6 104/1/6 111/1/6
f 111/1/6 104/1/6 112/1/6
f 104/3/6 105/3/6 113/3/6
f 112/1/6 104/1/6 113/1/6
f 107/5/6 108/5/6 114/5/6
f 113/3/6 105/3/6 114/3/6
f 106/5/6 107/5/6 114/5/6
f 105/5/6 106/5/6 114/5/6
f 110/3/6 111/3/6 115/3/6
f 109/5/6 110/5/6 115/5/6
f 111/1/6 112/1/6 116/1/6
f 115/3/6 111/3/6 116/3/6
f 112/3/6 113/3/6 117/3/6
f 116/1/6 112/1/6 117/1/6
f 113/5/6 114/5/6 118/5/6
f 117/3/6 113/3/6 118/3/6
f 114/5/6 108/5/6 119/5/6
f 118/5/6 114/5/6 119/5/6
f 108/5/6 28/5/6 120/5/6
f 119/5/6 108/5/6 120/5/6
f 115/5/6 116/5/6 121/5/6
f 116/3/6 117/3/6 121/3/6
f 118/5/6 119/5/6 122/5/6
f 121/3/6 117/3/6 122/3/6
f 117/5/6 118/5/6 122/5/6
f 119/3/6 120/3/6 123/3/6
f 122/5/6 119/5/6 123/5/6
f 120/5/6 28/5/6 124/5/6
f 123/3/6 120/3/6 124/3/6
f 25/4/6 27/4/6 125/4/6
f 27/5/6 79/5/6 125/5/6
f 123/5/6 124/5/6 125/5/6
f 121/5/6 122/5/6 125/5/6
f 79/5/6 97/5/6 125/5/6
f 115/5/6 121/5/6 125/5/6
f 122/5/6 123/5/6 125/5/6
f 97/5/6 109/5/6 125/5/6
f 109/5/6 115/5/6 125/5/6
f 124/5/6 28/5/6 126/5/6
f 125/5/6 124/5/6 126/5/6
f 28/4/6 26/4/6 126/4/6
f 25/4/6 125/4/6 127/4/6
f 125/4/6 126/4/6 127/4/6
f 126/4/6 26/4/6 128/4/6
f 127/4/6 126/4/6 128/4/6
